<?xml version="1.0" encoding="UTF-8"?>
<svg version="1.1" xmlns="http://www.w3.org/2000/svg" width="1133" height="677">
<path d="M0 0 C373.89 0 747.78 0 1133 0 C1133 223.41 1133 446.82 1133 677 C759.11 677 385.22 677 0 677 C0 453.59 0 230.18 0 0 Z " fill="#0D1324" transform="translate(0,0)"/>
<path d="M0 0 C361.68 0 723.36 0 1096 0 C1096 47.70886076 1096 47.70886076 1091.45703125 54.20703125 C1090.64298828 55.00173828 1090.64298828 55.00173828 1089.8125 55.8125 C1089.01779297 56.62654297 1089.01779297 56.62654297 1088.20703125 57.45703125 C1082.65621678 61.33768916 1076.86061065 62.44631442 1070.21360499 62.37834883 C1069.46771099 62.38280424 1068.72181698 62.38725965 1067.95332013 62.39185008 C1065.45893792 62.40310553 1062.96510793 62.39307236 1060.47072697 62.38311005 C1058.65466444 62.38684743 1056.83860423 62.39189705 1055.02254859 62.39813888 C1050.01737296 62.41150918 1045.01236405 62.40615279 1040.00718394 62.39780539 C1034.56749312 62.39201102 1029.12783481 62.40353918 1023.68815273 62.41286707 C1014.14947823 62.42680012 1004.61085117 62.42950711 995.07216835 62.42490768 C980.88797215 62.41808594 966.70382412 62.42831992 952.51963461 62.44186524 C926.45294202 62.46645021 900.38626686 62.47140574 874.31956447 62.46955473 C870.62586483 62.4692951 866.93216519 62.46905643 863.23846555 62.46883965 C862.1379934 62.46877359 862.1379934 62.46877359 861.01528949 62.46870619 C844.75956447 62.46784293 828.50384261 62.47263344 812.24811883 62.47852156 C808.53683639 62.47986252 804.82555393 62.48116241 801.11427147 62.4824672 C799.62479741 62.48299173 798.13532334 62.48351632 796.64584927 62.48404097 C795.90754666 62.48430075 795.16924404 62.48456053 794.40856862 62.48482819 C792.91519598 62.48535437 791.42182335 62.48588204 789.92845071 62.4864112 C747.55149822 62.50140909 705.17454824 62.51017666 662.79759312 62.50545502 C661.62041526 62.50532622 661.62041526 62.50532622 660.41945603 62.50519482 C651.66814905 62.50423541 642.91684207 62.5031972 634.1655351 62.50213593 C631.77026655 62.50184641 629.374998 62.50155693 626.97972945 62.50126753 C625.38156907 62.50107353 623.78340868 62.50087803 622.18524829 62.50068104 C571.63934854 62.4944641 521.09349666 62.50932876 470.54760742 62.54199219 C457.81052188 62.55021529 445.0734363 62.55836519 432.33635044 62.56609344 C431.55209893 62.56656964 430.76784741 62.56704584 429.9598307 62.56753646 C405.7933522 62.58211994 381.62687767 62.59056759 357.46039486 62.592659 C356.70180803 62.59272531 355.94322119 62.59279163 355.16164688 62.59285996 C338.50990846 62.59425393 321.85817033 62.59414284 305.20643192 62.59264987 C299.24837909 62.59212775 293.29032624 62.59171058 287.3322734 62.5913417 C285.85004123 62.59124848 284.36780906 62.59114934 282.8855769 62.59104425 C259.25770916 62.58941849 235.62987707 62.60225012 212.00201857 62.62220203 C187.54774563 62.64273054 163.0935335 62.64489975 138.63925833 62.62604648 C124.53493788 62.615696 110.43078027 62.61925209 96.32647443 62.64257733 C86.9137232 62.65676745 77.50109298 62.65289545 68.08835001 62.63413157 C62.71965013 62.62394294 57.35126815 62.62175229 51.98258764 62.64145225 C47.10059696 62.65920542 42.21919308 62.65403892 37.33723213 62.63042386 C35.58015252 62.62596599 33.82302674 62.62992231 32.06599188 62.64323221 C21.99669191 62.71435563 13.78916206 62.5583899 6.14123091 55.21532664 C-7.24342142 41.20248271 0 15.66239535 0 0 Z " fill="#F16D12" transform="translate(22,597)"/>
<path d="M0 0 C18.11061601 -0.74400368 35.99428342 4.76702393 49.86328125 16.5390625 C62.0369708 28.19976027 66.94239705 42.20055644 70.48828125 58.2265625 C70.66682018 58.98646831 70.84535912 59.74637411 71.02930832 60.52930737 C71.57233339 63.72051334 71.62063831 66.74616368 71.62872314 69.98420715 C71.63169427 70.65097636 71.63466539 71.31774557 71.63772655 72.00471991 C71.64637626 74.23208198 71.64791867 76.45939006 71.64941406 78.68676758 C71.65404519 80.28714105 71.65907025 81.88751342 71.66445923 83.48788452 C71.67756423 87.83356507 71.68402548 92.17923017 71.68846989 96.52492738 C71.69140609 99.2459415 71.69551211 101.96695146 71.69997406 104.68796349 C71.71364929 113.21814034 71.72331358 121.7483076 71.72717595 130.27849466 C71.73164495 140.09254327 71.74913868 149.9064518 71.77817655 159.72045785 C71.79988726 167.32499495 71.80988535 174.92949293 71.81121707 182.53406066 C71.81225919 187.06622218 71.8180384 191.59825203 71.83603668 196.13038063 C71.85267854 200.40434559 71.85459593 204.67808225 71.84589767 208.95206833 C71.8451356 210.50792623 71.84935826 212.06379722 71.85935593 213.61962318 C71.99505784 236.08288383 67.62370951 258.61398671 51.80078125 275.4765625 C35.94475264 290.58896496 15.31573872 293.93372312 -5.82421875 293.4765625 C-24.71645808 292.7048207 -41.05612976 285.56002967 -54.15234375 271.99609375 C-73.073099 249.78613436 -70.98435471 219.89903044 -70.94762683 192.57454562 C-70.94450153 188.9765191 -70.95066371 185.37853059 -70.95666558 181.78050953 C-70.97063 173.28243211 -70.9692162 164.7844554 -70.95776367 156.28637695 C-70.94627787 147.57196345 -70.96038448 138.85785756 -70.98716015 130.14348453 C-71.00943039 122.60825348 -71.01592957 115.07311821 -71.01008373 107.53785664 C-71.0067414 103.06059287 -71.00894567 98.58352632 -71.02633476 94.10629082 C-71.04198534 89.8944263 -71.03765164 85.68301257 -71.01902962 81.4711647 C-71.01539384 79.94194299 -71.01830207 78.41268645 -71.02891541 76.88349724 C-71.17059024 54.75062081 -65.73096459 34.18750187 -50.44921875 17.6015625 C-36.13218322 3.89118102 -19.06902272 1.23025953 0 0 Z " fill="#FCFCFD" transform="translate(836.51171875,234.7734375)"/>
<path d="M0 0 C100.59767588 0 100.59767588 0 119.5625 17 C133.44637261 31.62649835 137.31701807 52.20560454 137.30078125 71.640625 C137.30506638 72.80648132 137.3093515 73.97233765 137.31376648 75.17352295 C137.31947135 77.62397619 137.32003867 80.07444635 137.31567383 82.52490234 C137.31251999 86.2265384 137.33600208 89.92736893 137.36132812 93.62890625 C137.39503289 106.09311577 137.13928887 117.88926157 134 130 C133.69388794 131.22420654 133.69388794 131.22420654 133.3815918 132.47314453 C131.20670956 140.48867634 128.21053542 147.53004606 123 154 C122.41476562 154.75796875 121.82953125 155.5159375 121.2265625 156.296875 C111.36324786 168.29388627 97.99656358 173.50057274 83 176 C70.79 176 58.58 176 46 176 C46 211.97 46 247.94 46 285 C30.82 285 15.64 285 0 285 C0 190.95 0 96.9 0 0 Z " fill="#FDFDFE" transform="translate(939,239)"/>
<path d="M0 0 C99.75043937 0 99.75043937 0 118 16 C132.8312598 31.24252524 137.14415992 52.00448079 137.16796875 72.62109375 C137.17129715 73.6386525 137.17462555 74.65621124 137.17805481 75.7046051 C137.1831032 77.85539297 137.18546378 80.00618863 137.18530273 82.15698242 C137.18747207 85.39580774 137.20560283 88.63428247 137.22460938 91.87304688 C137.26634562 106.58486161 137.29265048 121.35352942 132.25 135.375 C131.85530518 136.50603149 131.85530518 136.50603149 131.45263672 137.65991211 C129.31045305 143.58058116 126.77100041 148.92612353 123 154 C122.43925781 154.76441406 121.87851563 155.52882813 121.30078125 156.31640625 C111.57403938 168.36777825 97.86691097 173.52218151 83 176 C70.79 176 58.58 176 46 176 C46 211.97 46 247.94 46 285 C30.82 285 15.64 285 0 285 C0 190.95 0 96.9 0 0 Z " fill="#FDFEFE" transform="translate(67,239)"/>
<path d="M0 0 C0.65255268 -0.00453111 1.30510536 -0.00906223 1.97743237 -0.01373065 C4.16220196 -0.02638246 6.34672251 -0.02475381 8.53152466 -0.02310181 C10.09871745 -0.02908658 11.6659073 -0.035892 13.23309326 -0.04345703 C17.48933762 -0.0611294 21.74550158 -0.06581293 26.00177908 -0.0670886 C29.55544227 -0.06898798 33.10908675 -0.07634596 36.66274273 -0.08343279 C45.04739844 -0.099719 53.4320112 -0.10460153 61.81668091 -0.10317993 C70.46454803 -0.10197837 79.11216562 -0.12308249 87.75996959 -0.15466726 C95.18599683 -0.18082269 102.61194254 -0.19154754 110.03801548 -0.19026911 C114.47265653 -0.18975927 118.90707584 -0.1954548 123.34167099 -0.21662521 C127.51306487 -0.23599538 131.68402521 -0.23614064 135.85543442 -0.22159195 C137.38485345 -0.21950122 138.91429953 -0.22422052 140.44367218 -0.23631287 C142.53505922 -0.25177558 144.62495318 -0.24245298 146.71630859 -0.22705078 C147.88547758 -0.22814032 149.05464657 -0.22922985 150.25924492 -0.2303524 C155.18832668 0.53023952 158.37653756 2.78249148 161.33587646 6.74642944 C163.05847535 12.02396121 162.90206181 17.08551575 162.87332153 22.60336304 C162.88120697 24.46290619 162.88120697 24.46290619 162.88925171 26.36001587 C162.90017175 29.74857938 162.89764245 33.13659132 162.88811445 36.5251236 C162.88049845 40.07774068 162.88756884 43.63033483 162.89227295 47.18295288 C162.89772487 53.14800223 162.89055375 59.11294001 162.87625122 65.07797241 C162.85992571 71.96608866 162.86521462 78.85393847 162.88173044 85.74204826 C162.89536143 91.66495475 162.89725711 97.58778121 162.88941443 103.51069832 C162.88474675 107.04429616 162.88408802 110.57776893 162.8940239 114.11135864 C162.90432984 118.05150644 162.89002975 121.99135781 162.87332153 125.93148804 C162.87939423 127.09738464 162.88546692 128.26328125 162.89172363 129.46450806 C162.81040601 139.81333739 162.81040601 139.81333739 159.48513794 144.26742554 C155.119725 147.70857837 152.26500966 148.76820434 146.72976685 148.77536011 C146.07550531 148.78160007 145.42124378 148.78784003 144.74715614 148.79426908 C142.56829756 148.81014577 140.39056608 148.79761719 138.21170044 148.78500366 C136.64420929 148.7904272 135.07672325 148.79755117 133.50924683 148.8062439 C129.2612733 148.82445277 125.01368911 148.81741991 120.76570892 148.80472755 C116.31621771 148.79458721 111.8667594 148.8039961 107.41726685 148.81027222 C99.94568916 148.81754561 92.47426972 148.80796902 85.00271606 148.78890991 C76.36955139 148.76714172 67.7367646 148.77419331 59.10360909 148.79621553 C51.6860131 148.81437833 44.26853076 148.81692357 36.85091972 148.80646086 C32.42304161 148.80023075 27.99534101 148.79937698 23.56747437 148.81260681 C19.40422156 148.82417754 15.24145507 148.81611757 11.0782547 148.79302979 C9.55207374 148.78774918 8.02585172 148.78924543 6.49968719 148.79808044 C4.41274553 148.80904625 2.32735256 148.7952632 0.24050903 148.77536011 C-1.50934799 148.77309795 -1.50934799 148.77309795 -3.29455566 148.7707901 C-8.27854726 147.99174474 -11.31090306 145.83170066 -14.36521149 141.86331081 C-15.65899594 138.94197446 -15.89681083 136.92007424 -15.90927124 133.73326111 C-15.92062103 132.63280457 -15.93197083 131.53234802 -15.94366455 130.39854431 C-15.94073395 129.20100021 -15.93780334 128.00345612 -15.93478394 126.7696228 C-15.94325348 125.50081268 -15.95172302 124.23200256 -15.96044922 122.92474365 C-15.98263568 119.45154838 -15.98559741 115.97859055 -15.98370171 112.50533414 C-15.98358188 109.60276406 -15.99215086 106.70024406 -16.00047922 103.79768795 C-16.01970266 96.94861781 -16.02260088 90.09966955 -16.01583862 83.25057983 C-16.00919706 76.19138675 -16.03206867 69.13271609 -16.06915236 62.07362896 C-16.09986588 56.00636271 -16.11120767 49.93926438 -16.10731554 43.87192196 C-16.10524985 40.25100297 -16.11069876 36.63049064 -16.13520813 33.00964546 C-16.16164389 28.97095359 -16.14773509 24.93336263 -16.13009644 20.8946228 C-16.14335968 19.69910294 -16.15662292 18.50358307 -16.17028809 17.27183533 C-16.07849821 8.23700635 -16.07849821 8.23700635 -13.22640991 4.60322571 C-8.7366616 0.73563589 -5.94299478 0.01704794 0 0 Z " fill="#F26E13" transform="translate(953.5148620605469,23.732574462890625)"/>
<path d="M0 0 C12.63090396 11.86684172 19.31510049 30.06875944 19.99902344 47.20019531 C20.12626438 54.20679068 19.99775791 61.17915843 19.87890625 68.19140625 C5.02890625 68.19140625 -9.82109375 68.19140625 -25.12109375 68.19140625 C-25.43359375 56.75390625 -25.43359375 56.75390625 -25.5090332 53.20532227 C-25.80423321 44.71778325 -26.75252565 36.37801526 -33.12109375 30.19140625 C-37.72264868 27.40464477 -41.69583762 26.64186529 -46.99609375 26.69140625 C-47.70282227 26.69712646 -48.40955078 26.70284668 -49.13769531 26.70874023 C-54.94070394 26.90757429 -59.09589083 27.9219298 -63.12109375 32.19140625 C-64.78685404 34.48121243 -65.9008959 36.60458681 -67.12109375 39.19140625 C-67.61609375 40.18140625 -67.61609375 40.18140625 -68.12109375 41.19140625 C-69.89266579 61.61213391 -66.0452938 76.92753471 -52.87109375 92.75390625 C-45.73441391 101.0947571 -37.49782241 107.91295675 -28.984375 114.80078125 C-25.34570696 117.83879604 -21.86001458 121.02067303 -18.39331055 124.25219727 C-15.6866929 126.77364153 -12.93174856 129.17606449 -10.05859375 131.50390625 C6.52209112 145.98184314 17.15318843 167.55347842 19.87890625 189.19140625 C20.17125989 194.13253086 20.20390942 199.05515329 20.19140625 204.00390625 C20.20751953 205.26783203 20.22363281 206.53175781 20.24023438 207.83398438 C20.24926273 225.46636785 16.13368662 243.93788827 3.87890625 257.19140625 C3.33492187 257.81402344 2.7909375 258.43664062 2.23046875 259.078125 C-9.69256885 271.98075489 -27.23618147 276.70220508 -44.234375 277.4453125 C-63.89085157 278.0150154 -81.06763637 275.01049554 -96.49609375 261.87890625 C-110.20052439 248.7066865 -117.01412879 230.68287067 -117.40220642 211.83029175 C-117.42208433 208.30317844 -117.37138151 204.78057776 -117.30859375 201.25390625 C-117.24671875 196.28328125 -117.18484375 191.31265625 -117.12109375 186.19140625 C-102.60109375 186.19140625 -88.08109375 186.19140625 -73.12109375 186.19140625 C-72.80859375 197.94140625 -72.80859375 197.94140625 -72.7331543 201.56542969 C-72.42015243 210.87780644 -71.73327999 222.0430968 -65.12109375 229.19140625 C-59.56269829 233.66626639 -53.45837977 233.79670484 -46.5390625 233.57421875 C-40.16358138 232.86016486 -35.81025823 231.227066 -31.68359375 226.25390625 C-26.2514318 215.60686883 -26.20314535 201.52411606 -28.9609375 189.921875 C-35.21470945 171.16055916 -50.29587079 157.26889363 -65.46875 145.3359375 C-69.07509945 142.42005259 -72.45953644 139.29043625 -75.8503418 136.12890625 C-78.55670735 133.60831926 -81.31102828 131.20627052 -84.18359375 128.87890625 C-101.15951225 114.09115188 -114.58927049 90.09743362 -116.40649414 67.66894531 C-116.5214218 64.04586941 -116.53791329 60.44100644 -116.49609375 56.81640625 C-116.48594238 55.54144287 -116.47579102 54.26647949 -116.46533203 52.95288086 C-116.16800984 34.92109669 -112.59955753 17.93420777 -100.12109375 4.19140625 C-99.57710938 3.5675 -99.033125 2.94359375 -98.47265625 2.30078125 C-74.52301963 -23.56032872 -25.69395763 -21.90847584 0 0 Z " fill="#FCFCFC" transform="translate(570.12109375,250.80859375)"/>
<path d="M0 0 C46.86 0 93.72 0 142 0 C142 13.86 142 27.72 142 42 C126.16 42 110.32 42 94 42 C94 122.19 94 202.38 94 285 C78.82 285 63.64 285 48 285 C48 204.81 48 124.62 48 42 C32.16 42 16.32 42 0 42 C0 28.14 0 14.28 0 0 Z " fill="#FDFDFE" transform="translate(606,239)"/>
<path d="M0 0 C46.86 0 93.72 0 142 0 C142 13.86 142 27.72 142 42 C126.16 42 110.32 42 94 42 C94 122.19 94 202.38 94 285 C78.82 285 63.64 285 48 285 C48 204.81 48 124.62 48 42 C32.16 42 16.32 42 0 42 C0 28.14 0 14.28 0 0 Z " fill="#FDFEFE" transform="translate(296,239)"/>
<path d="M0 0 C15.51 0 31.02 0 47 0 C47 94.05 47 188.1 47 285 C31.49 285 15.98 285 0 285 C0 190.95 0 96.9 0 0 Z " fill="#FBFCFC" transform="translate(228,239)"/>
<path d="M0 0 C25.41 0 50.82 0 77 0 C77 24.42 77 48.84 77 74 C102.08 74 127.16 74 153 74 C153 98.75 153 123.5 153 149 C127.59 149 102.18 149 76 149 C76 124.25 76 99.5 76 74 C50.92 74 25.84 74 0 74 C0 49.58 0 25.16 0 0 Z " fill="#FCFCFC" transform="translate(250,22)"/>
<path d="M0 0 C25.41 0 50.82 0 77 0 C77 24.42 77 48.84 77 74 C102.08 74 127.16 74 153 74 C153 98.75 153 123.5 153 149 C127.59 149 102.18 149 76 149 C76 124.25 76 99.5 76 74 C50.92 74 25.84 74 0 74 C0 49.58 0 25.16 0 0 Z " fill="#FBFBFC" transform="translate(97,22)"/>
<path d="M0 0 C25.08 0 50.16 0 76 0 C76 24.42 76 48.84 76 74 C101.08 74 126.16 74 152 74 C152 98.75 152 123.5 152 149 C126.59 149 101.18 149 75 149 C75 124.25 75 99.5 75 74 C50.25 74 25.5 74 0 74 C0 49.58 0 25.16 0 0 Z " fill="#FDFDFD" transform="translate(404,22)"/>
<path d="M0 0 C5.57154724 2.5411982 8.61313445 7.19435048 11.3125 12.5 C13.19009619 17.93514685 13.62592138 22.99997004 13.64044189 28.72842407 C13.64341302 29.38661931 13.64638414 30.04481456 13.6494453 30.72295511 C13.6580746 32.91508867 13.65963563 35.10716725 13.66113281 37.29931641 C13.66576515 38.87677119 13.67079037 40.45422486 13.67617798 42.03167725 C13.68926568 46.30885036 13.69574007 50.5860078 13.70018864 54.8631978 C13.70312581 57.53979609 13.70723186 60.21639015 13.71169281 62.8929863 C13.72535945 71.28005662 13.73502965 79.66711722 13.7388947 88.05419791 C13.74337068 97.71206596 13.76090072 107.36979216 13.7898953 117.0276171 C13.81156778 124.50812141 13.82160198 131.98858598 13.82293582 139.46912134 C13.82398005 143.92960027 13.8298059 148.38994571 13.84775543 152.85039139 C13.86433223 157.05130943 13.86634543 161.251995 13.85761642 165.45293427 C13.85685111 166.98628491 13.86112128 168.51964855 13.87107468 170.05296707 C14.01749435 194.03449312 14.01749435 194.03449312 6.5 201.9375 C-1.05860079 207.60645059 -9.32296557 208.20753601 -18.5 206.9375 C-21.73985556 205.77194221 -23.99087072 204.27229772 -26.5 201.9375 C-27.428125 201.091875 -28.35625 200.24625 -29.3125 199.375 C-35.87083507 190.65495939 -34.93286495 178.03383794 -34.88818359 167.67919922 C-34.89225779 166.07790776 -34.8976044 164.47661911 -34.90411377 162.87533569 C-34.91769022 158.56139157 -34.91252967 154.24766475 -34.90297651 149.93371725 C-34.89533204 145.40072172 -34.90243849 140.86774365 -34.90713501 136.33474731 C-34.91257759 128.72752574 -34.90543925 121.12039183 -34.89111328 113.51318359 C-34.8747779 104.73802166 -34.88008776 95.96306877 -34.8965925 87.18791187 C-34.91023615 79.62917166 -34.91211333 72.07049412 -34.90427649 64.51174557 C-34.89961728 60.00784514 -34.89892686 55.50404277 -34.90888596 51.00014877 C-34.91759583 46.76629795 -34.91146086 42.53271506 -34.89420319 38.29889297 C-34.89026022 36.75180759 -34.89133453 35.20469938 -34.89799118 33.65762329 C-34.9795697 12.76048829 -34.9795697 12.76048829 -28.1875 5.5 C-27.35798828 4.57380859 -27.35798828 4.57380859 -26.51171875 3.62890625 C-19.16113557 -2.55129281 -8.9687182 -2.78757457 0 0 Z " fill="#0D1425" transform="translate(847.5,278.0625)"/>
<path d="M0 0 C25.41 0 50.82 0 77 0 C77 24.42 77 48.84 77 74 C51.59 74 26.18 74 0 74 C0 49.58 0 25.16 0 0 Z " fill="#FCFCFC" transform="translate(557,22)"/>
<path d="M0 0 C24.75 0 49.5 0 75 0 C75 24.75 75 49.5 75 75 C50.25 75 25.5 75 0 75 C0 50.25 0 25.5 0 0 Z " fill="#000000" transform="translate(403,96)"/>
<path d="M0 0 C24.75 0 49.5 0 75 0 C75 24.75 75 49.5 75 75 C50.25 75 25.5 75 0 75 C0 50.25 0 25.5 0 0 Z " fill="#000000" transform="translate(250,96)"/>
<path d="M0 0 C24.75 0 49.5 0 75 0 C75 24.75 75 49.5 75 75 C50.25 75 25.5 75 0 75 C0 50.25 0 25.5 0 0 Z " fill="#000000" transform="translate(98,96)"/>
<path d="M0 0 C25.08 0 50.16 0 76 0 C76 24.42 76 48.84 76 74 C50.92 74 25.84 74 0 74 C0 49.58 0 25.16 0 0 Z " fill="#000000" transform="translate(481,22)"/>
<path d="M0 0 C25.08 0 50.16 0 76 0 C76 24.42 76 48.84 76 74 C50.92 74 25.84 74 0 74 C0 49.58 0 25.16 0 0 Z " fill="#000000" transform="translate(327,22)"/>
<path d="M0 0 C25.08 0 50.16 0 76 0 C76 24.42 76 48.84 76 74 C50.92 74 25.84 74 0 74 C0 49.58 0 25.16 0 0 Z " fill="#000000" transform="translate(174,22)"/>
<path d="M0 0 C0.69771011 0.00359528 1.39542023 0.00719055 2.11427307 0.01089478 C3.2117688 0.01067574 3.2117688 0.01067574 4.33143616 0.01045227 C6.76094989 0.0111515 9.19038789 0.01894432 11.61988831 0.02676392 C13.29997719 0.02862806 14.98006662 0.03005198 16.66015625 0.03105164 C21.09071849 0.03487709 25.52124815 0.04470761 29.95179749 0.05575562 C35.2631386 0.06776362 40.57449058 0.07237184 45.88584137 0.07820892 C53.96257762 0.08791936 62.03924233 0.1070757 70.11598206 0.12442017 C70.11598206 24.54442017 70.11598206 48.96442017 70.11598206 74.12442017 C45.03598206 74.12442017 19.95598206 74.12442017 -5.88401794 74.12442017 C-5.90464294 62.10004517 -5.92526794 50.07567017 -5.94651794 37.68692017 C-5.95562195 33.88491089 -5.96472595 30.08290161 -5.97410583 26.16567993 C-5.97862244 21.53640747 -5.97862244 21.53640747 -5.97946167 19.37184143 C-5.98100105 17.8543824 -5.98452586 16.33692462 -5.98959351 14.81947327 C-5.99687233 12.52599957 -5.99792532 10.23260088 -5.99754333 7.93911743 C-5.99976395 6.64450089 -6.00198456 5.34988434 -6.00427246 4.01603699 C-5.80764741 -0.71197096 -4.29056182 0.00932597 0 0 Z " fill="#000000" transform="translate(562.8840179443359,96.87557983398438)"/>
<path d="M0 0 C24.42 0 48.84 0 74 0 C74 24.75 74 49.5 74 75 C49.58 75 25.16 75 0 75 C0 50.25 0 25.5 0 0 Z " fill="#FDFDFD" transform="translate(23,96)"/>
<path d="M0 0 C1.19109375 0.0050354 2.3821875 0.0100708 3.609375 0.01525879 C8.03149709 0.04129279 12.45327434 0.11109932 16.875 0.17578125 C26.775 0.27890625 36.675 0.38203125 46.875 0.48828125 C46.875 24.90828125 46.875 49.32828125 46.875 74.48828125 C29.116875 74.51921875 29.116875 74.51921875 11 74.55078125 C7.25930176 74.55988525 3.51860352 74.56898926 -0.33544922 74.57836914 C-4.89672852 74.58288574 -4.89672852 74.58288574 -7.03079224 74.58372498 C-8.52404071 74.58526244 -10.01728792 74.58878335 -11.51052856 74.59385681 C-13.76989912 74.60115078 -16.02919369 74.6021881 -18.28857422 74.60180664 C-19.56320526 74.60402725 -20.8378363 74.60624786 -22.15109253 74.60853577 C-25.125 74.48828125 -25.125 74.48828125 -27.125 73.48828125 C-27.24125699 65.80361486 -27.32989817 58.11904057 -27.38406086 50.43369293 C-27.41006727 46.86433168 -27.44529728 43.29557556 -27.50219727 39.7265625 C-27.55684284 36.27705508 -27.58648778 32.82812672 -27.59938622 29.3782196 C-27.61301305 27.43281942 -27.65199448 25.48764965 -27.69148254 23.54260254 C-27.69376569 16.28403948 -27.32944132 10.85920812 -22.125 5.48828125 C-15.75633093 -0.71573534 -8.43885692 -0.16915007 0 0 Z " fill="#000000" transform="translate(50.125,21.51171875)"/>
<path d="M0 0 C23.76 0 47.52 0 72 0 C72 24.75 72 49.5 72 75 C48.24 75 24.48 75 0 75 C0 50.25 0 25.5 0 0 Z " fill="#FDFDFD" transform="translate(775,96)"/>
<path d="M0 0 C23.76 0 47.52 0 72 0 C72 24.42 72 48.84 72 74 C48.24 74 24.48 74 0 74 C0 49.58 0 25.16 0 0 Z " fill="#FCFDFD" transform="translate(847,22)"/>
<path d="M0 0 C23.76 0 47.52 0 72 0 C72 24.42 72 48.84 72 74 C48.24 74 24.48 74 0 74 C0 49.58 0 25.16 0 0 Z " fill="#000000" transform="translate(775,22)"/>
<path d="M0 0 C23.76 0 47.52 0 72 0 C72 24.42 72 48.84 72 74 C48.24 74 24.48 74 0 74 C0 49.58 0 25.16 0 0 Z " fill="#FCFCFC" transform="translate(703,22)"/>
<path d="M0 0 C23.43 0 46.86 0 71 0 C71 24.42 71 48.84 71 74 C47.57 74 24.14 74 0 74 C0 49.58 0 25.16 0 0 Z " fill="#000000" transform="translate(848,97)"/>
<path d="M0 0 C0 24.75 0 49.5 0 75 C-23.1 75 -46.2 75 -70 75 C-70 50.58 -70 26.16 -70 1 C-58.635625 0.835 -47.27125 0.67 -35.5625 0.5 C-30.17272827 0.42168945 -30.17272827 0.42168945 -24.67407227 0.34179688 C-20.29870605 0.27832031 -20.29870605 0.27832031 -18.25279236 0.24865723 C-16.81866925 0.22785053 -15.38454656 0.20701506 -13.95042419 0.18615723 C-11.78278702 0.15463669 -9.61514855 0.12320639 -7.44750977 0.09179688 C-6.22395279 0.07403198 -5.00039581 0.05626709 -3.73976135 0.03796387 C-1 0 -1 0 0 0 Z " fill="#000000" transform="translate(774,96)"/>
<path d="M0 0 C22.77 0 45.54 0 69 0 C69 24.75 69 49.5 69 75 C46.23 75 23.46 75 0 75 C0 50.25 0 25.5 0 0 Z " fill="#FDFDFD" transform="translate(634,96)"/>
<path d="M0 0 C22.77 0 45.54 0 69 0 C69 24.42 69 48.84 69 74 C46.23 74 23.46 74 0 74 C0 49.58 0 25.16 0 0 Z " fill="#000000" transform="translate(634,22)"/>
<path d="M0 0 C5.71343185 3.33655493 9.12283639 8.49744149 11.35848999 14.62666321 C12.70016101 19.94161689 12.42479589 25.42220733 12.3984375 30.87109375 C12.40130768 32.18527283 12.40417786 33.4994519 12.40713501 34.85345459 C12.41153835 37.62718367 12.40519642 40.40062143 12.39111328 43.17431641 C12.37408934 46.69533353 12.38383136 50.21566094 12.40183067 53.73665237 C12.41541202 57.13568486 12.4058395 60.53454181 12.3984375 63.93359375 C12.40754654 65.80449677 12.40754654 65.80449677 12.4168396 67.7131958 C12.35438563 75.60234929 11.28359623 82.61370871 9 90.16796875 C11.97 90.66296875 11.97 90.66296875 15 91.16796875 C15 95.78796875 15 100.40796875 15 105.16796875 C4.81784387 105.65867507 4.81784387 105.65867507 0.875 103.29296875 C-1 101.16796875 -1 101.16796875 -2 99.16796875 C-3.2065625 99.214375 -4.413125 99.26078125 -5.65625 99.30859375 C-7.27080836 99.34614162 -8.88539378 99.38253852 -10.5 99.41796875 C-11.29148437 99.45148438 -12.08296875 99.485 -12.8984375 99.51953125 C-19.73950977 99.63167998 -24.62141855 97.83631795 -29.98828125 93.59765625 C-37.30307058 85.0097915 -37.45903861 75.0451026 -37.43359375 64.19921875 C-37.4388356 62.88312622 -37.44407745 61.56703369 -37.44947815 60.21105957 C-37.45835329 57.44090087 -37.45605006 54.67103134 -37.44604492 51.90087891 C-37.43454904 48.37734104 -37.4548033 44.85480454 -37.48396206 41.33139801 C-37.5068722 37.93312131 -37.49985138 34.53507047 -37.49609375 31.13671875 C-37.50732773 29.88540161 -37.51856171 28.63408447 -37.53013611 27.34484863 C-37.46356877 18.91312859 -36.46235535 11.46321673 -31.03515625 4.73046875 C-30.38417969 4.21484375 -29.73320313 3.69921875 -29.0625 3.16796875 C-28.41410156 2.63171875 -27.76570312 2.09546875 -27.09765625 1.54296875 C-19.31853411 -3.55619511 -8.53472358 -3.34172081 0 0 Z " fill="#FEFBF7" transform="translate(1051,46.83203125)"/>
<path d="M0 0 C30 0 30 0 38 5 C39.83984375 7.09765625 39.83984375 7.09765625 40.9375 9.0625 C41.31777344 9.71347656 41.69804688 10.36445313 42.08984375 11.03515625 C43.84814367 14.83097109 44.13141718 18.27641683 44.16113281 22.43603516 C44.17074036 23.52461823 44.1803479 24.61320129 44.19024658 25.73477173 C44.19449646 26.90768768 44.19874634 28.08060364 44.203125 29.2890625 C44.20882507 30.50266449 44.21452515 31.71626648 44.22039795 32.96664429 C44.22984557 35.53716155 44.23638099 38.10769092 44.24023438 40.67822266 C44.24991114 44.58908585 44.28092597 48.49941702 44.3125 52.41015625 C44.31903327 54.91145522 44.32428246 57.41275795 44.328125 59.9140625 C44.3404718 61.07483307 44.3528186 62.23560364 44.36553955 63.43154907 C44.34264643 71.87980058 43.61043637 79.99706619 38.375 86.9375 C27.69915415 96.62484161 13.63566398 93 0 93 C0 62.31 0 31.62 0 0 Z " fill="#0F1526" transform="translate(985,281)"/>
<path d="M0 0 C29 0 29 0 37 4 C38.8046875 5.89453125 38.8046875 5.89453125 39.875 7.8125 C40.24367187 8.43769531 40.61234375 9.06289063 40.9921875 9.70703125 C44.14475789 16.87973985 44.30712796 23.3892389 44.30078125 31.14453125 C44.30506638 32.30949631 44.3093515 33.47446136 44.31376648 34.67472839 C44.31949489 37.13316195 44.32002105 39.59161244 44.31567383 42.05004883 C44.31251938 45.78952321 44.33597392 49.52820171 44.36132812 53.26757812 C44.36360197 55.66406151 44.36430422 58.060547 44.36328125 60.45703125 C44.372491 61.5646431 44.38170074 62.67225494 44.39118958 63.81343079 C44.33628107 73.13797855 43.08156146 81.21181264 36.98828125 88.52734375 C26.16639906 96.54276533 12.78080827 93 0 93 C0 62.31 0 31.62 0 0 Z " fill="#0E1526" transform="translate(113,281)"/>
<path d="M0 0 C373.89 0 747.78 0 1133 0 C1133 3.96 1133 7.92 1133 12 C1131.20963542 10.56770833 1129.41927083 9.13541667 1127.62890625 7.703125 C1117.94580258 1.42997017 1109.07105415 1.43267102 1097.85071659 1.49384212 C1095.97921573 1.48936405 1094.10771838 1.483135 1092.2362285 1.47531679 C1087.08174215 1.45888627 1081.92755072 1.46740542 1076.77306448 1.47992842 C1071.16980696 1.48915953 1065.56659944 1.47525625 1059.96335167 1.46428925 C1050.13901119 1.44828516 1040.31475635 1.4472196 1030.49040794 1.45588684 C1019.94965088 1.46516122 1009.40894376 1.46596992 998.86818695 1.45610237 C997.86930881 1.45517661 997.86930881 1.45517661 996.8502513 1.45423216 C994.13803837 1.45169069 991.42582551 1.44908888 988.71361271 1.44641014 C961.18255648 1.41924555 933.65154067 1.41781482 906.1204751 1.42636816 C902.31640748 1.42754113 898.51233986 1.42867428 894.70827222 1.42976642 C893.57491046 1.43009213 893.57491046 1.43009213 892.4186525 1.43042441 C875.6754759 1.43505669 858.93230384 1.43163323 842.18912775 1.42649991 C839.89777865 1.42579756 837.60642954 1.42511258 835.31508042 1.42443276 C829.17280124 1.42260736 823.03052207 1.42076178 816.88824291 1.41887999 C799.71758658 1.41365537 782.54693007 1.40984315 765.37627316 1.40717411 C764.59433745 1.40705256 763.81240174 1.40693102 763.006771 1.40680579 C738.08798825 1.40304174 713.16921021 1.40563307 688.2504282 1.4124136 C687.44211983 1.41263215 686.63381146 1.41285071 685.80100889 1.41307588 C676.78743619 1.4155211 667.77386352 1.418091 658.76029087 1.42071127 C657.94649198 1.42094781 657.13269309 1.42118435 656.29423362 1.42142806 C653.00316424 1.42238544 649.71209486 1.42334299 646.42102548 1.42430821 C594.3606601 1.43955706 542.30034974 1.43156228 490.23999023 1.40307617 C477.12116536 1.39591166 464.00234047 1.38880908 450.88351536 1.38209438 C450.07575414 1.38168016 449.26799293 1.38126595 448.43575411 1.38083918 C423.54400895 1.3681571 398.65226839 1.36164737 373.76051998 1.36168766 C372.97914393 1.36168846 372.19776787 1.36168926 371.39271375 1.36169009 C354.2405658 1.36177428 337.08841828 1.36341391 319.93627061 1.36646848 C313.79914472 1.3675524 307.66201881 1.36854369 301.5248929 1.36949934 C299.99811792 1.36973942 298.47134295 1.36998582 296.94456797 1.37023856 C272.60896441 1.37423348 248.27339206 1.36424528 223.93779472 1.34753431 C198.7504458 1.3303753 173.56315861 1.33182376 148.37581319 1.35444032 C145.67161356 1.35679689 142.96741387 1.35907378 140.26321411 1.36128807 C139.26772201 1.36211413 139.26772201 1.36211413 138.25211895 1.36295688 C127.10045456 1.37173309 115.94887929 1.36074347 104.7972273 1.34455946 C95.10198438 1.33186973 85.40686181 1.33726178 75.71163204 1.35754427 C70.18242985 1.36860087 64.65353457 1.37168366 59.12434644 1.35286897 C54.09555869 1.33592045 49.06734386 1.34192361 44.03859157 1.36633481 C42.22949603 1.37108283 40.42035427 1.36743574 38.61129935 1.35441579 C28.1435568 1.2842923 18.97606195 1.41198315 10.90341846 8.9604437 C3.69294184 16.46947994 1.40012252 23.58687869 1.49104881 33.85227585 C1.48463586 34.92834036 1.4782229 36.00440487 1.47161561 37.1130774 C1.45498753 40.72572762 1.46687346 44.33771711 1.47860718 47.95037842 C1.47256706 50.56385843 1.46478956 53.1773349 1.45542204 55.7908051 C1.43790464 61.47662999 1.43527138 67.16231081 1.44242859 72.84815598 C1.45304372 81.30338322 1.44085094 89.75847101 1.42426272 98.21368309 C1.39377382 114.1937069 1.39037355 130.17366735 1.39530878 146.15371415 C1.39897364 158.4941999 1.39545698 170.83466487 1.38685989 183.17514801 C1.38565509 184.94790602 1.3844527 186.72066403 1.38325269 188.49342205 C1.38143818 191.16479076 1.37962085 193.83615947 1.37778799 196.50752816 C1.36092727 221.34678992 1.35225861 246.18604384 1.36060143 271.02531052 C1.36091418 271.96181317 1.36122693 272.89831583 1.36154916 273.86319735 C1.36316073 278.60978745 1.36485227 283.35637753 1.36657576 288.10296759 C1.36691794 289.04565825 1.36726011 289.98834891 1.36761266 290.95960596 C1.36830597 292.86595616 1.36900303 294.77230636 1.36970383 296.67865655 C1.38041743 326.33920349 1.36456049 355.9996315 1.32763672 385.66015625 C1.28620209 418.98325538 1.26475036 452.30628083 1.27278769 485.62940717 C1.27357838 489.18280108 1.27430148 492.736195 1.27498245 496.28958893 C1.27516392 497.16452525 1.27534538 498.03946158 1.27553234 498.94091113 C1.27786409 512.14782052 1.26456912 525.35465552 1.24335861 538.56154633 C1.21925851 553.58299692 1.21613197 568.60428366 1.24093895 583.62573668 C1.254198 592.03062977 1.25093042 600.43513107 1.22376192 608.83999282 C1.20533086 615.11765842 1.21830336 621.39489225 1.24345751 627.67252627 C1.24877069 630.21084154 1.24395802 632.74920247 1.22798578 635.28747305 C0.62566405 653.20046509 0.62566405 653.20046509 8 669 C10.07305574 671.09739864 12.12520697 672.99524357 14.4609375 674.79296875 C15.22277344 675.39044922 15.22277344 675.39044922 16 676 C16 676.33 16 676.66 16 677 C10.72 677 5.44 677 0 677 C0 453.59 0 230.18 0 0 Z " fill="#2C303A" transform="translate(0,0)"/>
<path d="M0 0 C5.28 0 10.56 0 16 0 C16 32.67 16 65.34 16 99 C10.72 99 5.44 99 0 99 C0 66.33 0 33.66 0 0 Z " fill="#FEFEFC" transform="translate(988,46)"/>
<path d="M0 0 C0.96596659 -0.00891337 0.96596659 -0.00891337 1.95144767 -0.0180068 C4.09534562 -0.03526016 6.23901865 -0.03838682 8.38298035 -0.04138184 C9.92589793 -0.05064667 11.46881097 -0.06069712 13.01171875 -0.07147217 C17.19365091 -0.09763999 21.37551897 -0.1105939 25.55752015 -0.11949348 C28.17312807 -0.125367 30.78871869 -0.13357879 33.40431786 -0.14250183 C41.5964947 -0.16982855 49.78863175 -0.18917405 57.98085099 -0.19690561 C67.42216727 -0.20586641 76.86290435 -0.24096888 86.30404454 -0.2989068 C93.61296254 -0.3421959 100.92171788 -0.36231704 108.23076266 -0.36498785 C112.5912718 -0.36707971 116.95123564 -0.37880294 121.31160927 -0.41462708 C125.41506398 -0.44768697 129.51756632 -0.45185399 133.6211071 -0.43434906 C135.12187382 -0.43281354 136.62269281 -0.44142525 138.12332916 -0.46126556 C145.96272606 -0.55878477 152.16836836 -0.31589505 158.62150097 4.60282135 C163.15115021 9.023973 163.15115021 9.023973 163.72106075 12.80219078 C163.72349065 13.75674974 163.72592054 14.71130871 163.72842407 15.6947937 C163.7383287 16.79387558 163.74823334 17.89295746 163.75843811 19.02534485 C163.75393646 20.22648422 163.74943481 21.4276236 163.74479675 22.66516113 C163.75166 23.93382523 163.75852325 25.20248932 163.76559448 26.50959778 C163.78353879 29.98699886 163.78235495 33.46414777 163.7766521 36.94158125 C163.77356134 39.8465836 163.77965158 42.75153744 163.78569084 45.65653288 C163.79973929 52.51182632 163.79817283 59.36699515 163.78678894 66.22229004 C163.77531345 73.28878056 163.78937277 80.3548913 163.81618541 87.42133176 C163.83835825 93.49282067 163.84497608 99.56419052 163.839109 105.63571703 C163.83574122 109.2599367 163.83814198 112.88391307 163.85536003 116.5080986 C163.87373134 120.55158184 163.85962597 124.59432892 163.842453 128.63781738 C163.85695496 130.43345375 163.85695496 130.43345375 163.87174988 132.2653656 C163.81550705 138.58342523 163.6005982 142.48154175 159.34074402 147.28088379 C158.86636902 147.85838379 158.39199402 148.43588379 157.90324402 149.03088379 C153.88487889 152.24557589 149.74066332 152.53387233 144.74359131 152.54830933 C144.09426775 152.55284044 143.4449442 152.55737155 142.77594417 152.56203997 C140.60809928 152.57466343 138.44050628 152.57306498 136.27262878 152.57141113 C134.71514057 152.5773976 133.15765531 152.58420342 131.60017395 152.59176636 C127.37497941 152.60941958 123.14986589 152.61412139 118.92463803 152.61539793 C116.28410008 152.61682024 113.64358269 152.6210913 111.00304985 152.62639236 C101.7890225 152.64488896 92.57505299 152.65306326 83.36100769 152.65148926 C74.77503508 152.6502873 66.18931362 152.67140125 57.60340458 152.70297658 C50.22831209 152.72913164 42.85330169 152.73985691 35.47816318 152.73857844 C31.07483552 152.73806866 26.6717312 152.74376054 22.26844978 152.76493454 C18.12741033 152.78430456 13.98680761 152.78445009 9.84575272 152.76990128 C8.32762069 152.76781067 6.80946141 152.77252917 5.29137611 152.78462219 C3.21536564 152.8000863 1.14085903 152.79076156 -0.93511963 152.77536011 C-2.09561545 152.77644964 -3.25611128 152.77753918 -4.45177364 152.77866173 C-9.32591178 152.02223093 -13.60398132 149.18484586 -16.65925598 145.28088379 C-16.65925598 144.29088379 -16.65925598 143.30088379 -16.65925598 142.28088379 C-17.31925598 142.28088379 -17.97925598 142.28088379 -18.65925598 142.28088379 C-19.66193801 139.2728377 -19.78728793 137.27567769 -19.79296875 134.13235474 C-19.79936623 132.5341111 -19.79936623 132.5341111 -19.80589294 130.90357971 C-19.80543976 129.73467697 -19.80498657 128.56577423 -19.80451965 127.3614502 C-19.80787827 126.13034012 -19.81123688 124.89923004 -19.81469727 123.6308136 C-19.82257757 120.25264526 -19.82587532 116.87453838 -19.82651305 113.49636507 C-19.82746262 110.67583555 -19.83114151 107.85531193 -19.83468515 105.03478467 C-19.84282923 98.37950999 -19.84526944 91.72424883 -19.84455872 85.06896973 C-19.84395805 78.2053799 -19.85450773 71.34186871 -19.87030238 64.47829878 C-19.883382 58.58436228 -19.88874243 52.69045147 -19.88810331 46.79650056 C-19.88784842 43.2768791 -19.8906941 39.75732749 -19.90128136 36.23772049 C-19.91276916 32.31148462 -19.90821291 28.38535639 -19.9021759 24.45910645 C-19.90779541 23.29425217 -19.91341492 22.12939789 -19.91920471 20.929245 C-19.91501022 19.85810959 -19.91081573 18.78697418 -19.90649414 17.68338013 C-19.90703891 16.75534388 -19.90758368 15.82730762 -19.90814495 14.87114906 C-19.3623437 9.19082486 -16.97653604 5.91132384 -12.65925598 2.28088379 C-8.33164036 0.51103604 -4.65586934 0.02412985 0 0 Z M-15.51002598 8.19251442 C-16.96914264 10.84400675 -17.03924396 12.67304327 -17.04693604 15.6947937 C-17.05684067 16.79387558 -17.0667453 17.89295746 -17.07695007 19.02534485 C-17.07244843 20.22648422 -17.06794678 21.4276236 -17.06330872 22.66516113 C-17.07017197 23.93382523 -17.07703522 25.20248932 -17.08410645 26.50959778 C-17.10205075 29.98699886 -17.10086691 33.46414777 -17.09516406 36.94158125 C-17.09207331 39.8465836 -17.09816355 42.75153744 -17.10420281 45.65653288 C-17.11825126 52.51182632 -17.11668479 59.36699515 -17.1053009 66.22229004 C-17.09382541 73.28878056 -17.10788474 80.3548913 -17.13469738 87.42133176 C-17.15687021 93.49282067 -17.16348804 99.56419052 -17.15762097 105.63571703 C-17.15425318 109.2599367 -17.15665394 112.88391307 -17.17387199 116.5080986 C-17.1922433 120.55158184 -17.17813793 124.59432892 -17.16096497 128.63781738 C-17.17063293 129.83490829 -17.1803009 131.03199921 -17.19026184 132.2653656 C-17.13589584 138.37259102 -17.08139779 142.6335484 -12.65925598 147.28088379 C-8.69510399 150.17338345 -5.89457903 150.65842703 -1.0241394 150.66856384 C-0.3707323 150.67394938 0.28267481 150.67933492 0.95588213 150.68488365 C3.13766701 150.69915115 5.31884412 150.69206292 7.50065613 150.68493652 C9.06799812 150.69064076 10.63533595 150.69760522 12.20266724 150.70573425 C16.45476445 150.72367512 20.7066554 150.72249555 24.9587791 150.71679187 C28.51001361 150.71370132 32.06120844 150.71979099 35.61243731 150.72583061 C43.99090061 150.73987731 52.36926195 150.73831339 60.74772644 150.72692871 C69.38824281 150.71544732 78.0284488 150.72952311 86.66892427 150.75632519 C94.09073571 150.77848418 101.51244973 150.78511912 108.9342919 150.77924877 C113.36555098 150.77587846 117.7966111 150.77829913 122.22784233 150.7954998 C126.39516546 150.81097009 130.56202891 150.80701273 134.72933388 150.78819466 C136.25713386 150.78450897 137.78496791 150.78761673 139.31273651 150.79808044 C141.40190085 150.81129473 143.48954431 150.79974188 145.5786438 150.78208923 C146.74651397 150.78187995 147.91438414 150.78167067 149.11764431 150.78145504 C154.04384292 150.01637992 157.2339417 147.76479779 160.19049072 143.80088806 C161.91301355 138.52962499 161.76610859 133.47300026 161.74479675 127.96081543 C161.75166 126.72272629 161.75852325 125.48463715 161.76559448 124.20903015 C161.78073129 120.82453944 161.78236443 117.44060082 161.7766521 114.0561173 C161.773555 111.22566831 161.77965848 108.39526884 161.78569084 105.56482691 C161.79972282 98.88493197 161.79818595 92.20516495 161.78678894 85.52526855 C161.77530923 78.64506861 161.7893836 71.76525854 161.81618541 64.88510996 C161.83837123 58.96727864 161.84497333 53.04956944 161.839109 47.1316995 C161.83574503 43.60193157 161.83811682 40.07241351 161.85536003 36.54268074 C161.87375738 32.60508167 161.85961234 28.66795888 161.842453 24.73034668 C161.85212097 23.56804535 161.86178894 22.40574402 161.87174988 21.20822144 C161.81240622 14.70329967 161.410665 10.47172978 157.34074402 5.28088379 C153.40725005 2.35424458 150.56234171 1.90331198 145.70562744 1.89320374 C145.05222033 1.8878182 144.39881323 1.88243266 143.72560591 1.87688392 C141.54382103 1.86261643 139.36264391 1.86970466 137.18083191 1.87683105 C135.61348992 1.87112682 134.04615209 1.86416235 132.4788208 1.85603333 C128.22672359 1.83809246 123.97483264 1.83927203 119.72270894 1.84497571 C116.17147442 1.84806626 112.6202796 1.84197659 109.06905073 1.83593696 C100.69058743 1.82189027 92.31222609 1.82345419 83.9337616 1.83483887 C75.29324523 1.84632026 66.65303923 1.83224447 58.01256377 1.80544239 C50.59075233 1.7832834 43.16903831 1.77664846 35.74719614 1.7825188 C31.31593706 1.78588912 26.88487694 1.78346844 22.45364571 1.76626778 C18.28632258 1.75079749 14.11945913 1.75475485 9.95215416 1.77357292 C8.42435417 1.77725861 6.89652012 1.77415084 5.36875153 1.76368713 C3.27958719 1.75047285 1.19194373 1.76202569 -0.89715576 1.77967834 C-2.06502593 1.77988763 -3.2328961 1.78009691 -4.43615627 1.78031254 C-9.22337914 2.5238037 -12.18418077 4.75730228 -15.51002598 8.19251442 Z " fill="#3B1707" transform="translate(954.6592559814453,21.7191162109375)"/>
<path d="M0 0 C361.68 0 723.36 0 1096 0 C1096 47.85545024 1096 47.85545024 1091.3515625 54.27734375 C1085.54317897 59.86232791 1085.54317897 59.86232791 1081 60 C1081.33 59.01 1081.66 58.02 1082 57 C1082.8971875 56.7834375 1082.8971875 56.7834375 1083.8125 56.5625 C1086.81620844 55.79011783 1088.04260729 54.36237051 1090 52 C1090.63292383 49.88719655 1090.63292383 49.88719655 1091 48 C1091.66 47.67 1092.32 47.34 1093 47 C1093 32.15 1093 17.3 1093 2 C957.13671472 1.95522975 957.13671472 1.95522975 782.23335266 1.91531372 C780.68590767 1.91503482 779.13846269 1.91475592 777.5910177 1.91447701 C745.11169996 1.90863199 712.63238217 1.90319852 680.15306429 1.89824064 C663.83829285 1.8957498 647.52352142 1.89317985 631.20875001 1.89053512 C628.74768617 1.89013662 626.28662234 1.88974038 623.8255585 1.88934424 C585.91633817 1.88322229 548.00711913 1.87540094 510.09790039 1.8626709 C509.28245235 1.8623971 508.4670043 1.8621233 507.62684571 1.86184121 C494.47891465 1.85741632 481.33098364 1.85284915 468.18305264 1.84826312 C430.32559438 1.8350605 392.4681371 1.82290509 354.61067677 1.81772041 C353.83261749 1.81761334 353.05455822 1.81750627 352.25292139 1.81739596 C335.1750522 1.81506475 318.09718301 1.81327489 301.01931371 1.81199803 C294.14836685 1.81147477 287.27742001 1.81087353 280.40647316 1.81024551 C279.27846118 1.81014523 279.27846118 1.81014523 278.12766109 1.81004293 C253.87426653 1.80784795 229.62087928 1.79929874 205.36748768 1.78743558 C180.94786407 1.77552008 156.52824757 1.76979764 132.10862098 1.77275202 C116.94720014 1.77457929 101.78580151 1.7709758 86.62438488 1.75840491 C76.96646586 1.75094082 67.30856434 1.75064735 57.65064415 1.75633637 C52.13692563 1.75937445 46.62325749 1.75915116 41.10954424 1.75023364 C36.10298137 1.74219731 31.09650862 1.74320444 26.08994728 1.75172005 C24.28096127 1.75315967 22.47196882 1.75117774 20.66299106 1.74552951 C18.22270533 1.73838756 15.78274628 1.74338111 13.3424713 1.75160301 C12.63338962 1.74658525 11.92430793 1.7415675 11.19373893 1.73639769 C7.56084945 1.76282641 6.11559131 1.92293913 3 4 C2.54761518 7.20078677 2.54761518 7.20078677 2.63671875 10.9921875 C2.63622025 11.693367 2.63572174 12.39454651 2.63520813 13.11697388 C2.63755254 14.60828467 2.64730268 16.09959913 2.66381836 17.59082031 C2.68705168 19.83175808 2.6844277 22.07147539 2.67773438 24.3125 C2.559905 42.55038029 2.559905 42.55038029 11.66015625 57.68359375 C12.10230469 58.11800781 12.54445313 58.55242188 13 59 C7.85418697 57.63787302 4.82966116 54.34821832 2 50 C-3.27467745 34.17596764 0 16.67999467 0 0 Z " fill="#DC7937" transform="translate(22,597)"/>
<path d="M0 0 C0.33 0 0.66 0 1 0 C1.0093457 1.28575928 1.01869141 2.57151855 1.02832031 3.89624023 C1.06840866 8.69931775 1.13421931 13.5017674 1.20751953 18.30444336 C1.23562025 20.37695201 1.25688861 22.44956566 1.27099609 24.5222168 C1.29257701 27.51405168 1.33930442 30.50463849 1.390625 33.49609375 C1.39185364 34.41208847 1.39308228 35.32808319 1.39434814 36.27183533 C1.54462556 42.98017158 2.79901343 49.38005973 7.3760376 54.55613708 C12.91914504 59.43324329 18.25050829 61.45242538 25.53799802 61.37719816 C26.28133585 61.38152934 27.02467368 61.38586052 27.7905369 61.39032295 C30.28826874 61.4012032 32.78544992 61.39068405 35.28317738 61.38031673 C37.0969087 61.38374898 38.91063793 61.38849491 40.72436276 61.3944377 C45.73239254 61.40699909 50.74025296 61.40077416 55.74828368 61.39160402 C61.18758784 61.38491813 66.62686203 61.39554829 72.0661599 61.40399987 C81.60726144 61.41639989 91.14831382 61.41756486 100.6894207 61.41144943 C114.87725368 61.40237985 129.065041 61.4103731 143.25287047 61.42174067 C169.3260127 61.44201119 195.39913328 61.44346309 221.4722813 61.43809005 C225.16776972 61.43733435 228.86325814 61.43660673 232.55874658 61.43590808 C233.29274088 61.43576899 234.02673518 61.4356299 234.78297173 61.43548659 C251.0426236 61.43253548 267.30227272 61.43554592 283.5619241 61.43980437 C285.78662713 61.44038653 288.01133016 61.44095537 290.2360332 61.44152 C296.19957525 61.44303493 302.1631173 61.44456183 308.12665934 61.44611301 C349.7638215 61.45687167 391.40098112 61.46156958 433.03814411 61.45364285 C433.82319473 61.45349454 434.60824535 61.45334623 435.41708538 61.45319343 C444.17144337 61.4515344 452.92580134 61.44978482 461.68015931 61.44800042 C462.86576742 61.44775889 462.86576742 61.44775889 464.07532722 61.44751247 C468.87002871 61.446535 468.87002871 61.446535 473.6647302 61.44555128 C524.22400972 61.43515953 574.78325444 61.44292595 625.3425293 61.46655273 C638.08169454 61.47249603 650.8208598 61.47838754 663.56002522 61.48396206 C664.34440068 61.48430583 665.12877615 61.4846496 665.93692058 61.48500379 C690.10738007 61.49552956 714.27783666 61.5011251 738.44829845 61.5015192 C739.20701953 61.50153199 739.9657406 61.50154477 740.74745322 61.50155794 C757.4022372 61.50178622 774.05702093 61.50078023 790.71180478 61.49864888 C796.67100607 61.4978941 802.63020738 61.4972159 808.58940869 61.49656873 C810.07193537 61.49640604 811.55446205 61.49623838 813.03698873 61.49606572 C836.67048573 61.49334328 860.30396163 61.50190414 883.9374541 61.51591982 C908.3988884 61.53032013 932.86028233 61.52988418 957.32171527 61.5125451 C971.4304465 61.50295689 985.53907473 61.50446827 999.64779916 61.52177979 C1009.06356222 61.53222972 1018.47924643 61.52822487 1027.89500166 61.51229975 C1033.26542357 61.50362586 1038.63564292 61.50134558 1044.0060548 61.51656907 C1048.88959811 61.53028229 1053.77276423 61.52566189 1058.65628522 61.50628388 C1060.41395718 61.50254147 1062.17165935 61.50552867 1063.92930413 61.51599697 C1076.10845934 61.58354816 1084.78405032 60.50703047 1094 52 C1093.44823576 55.86234965 1092.06857668 57.62185307 1089 60 C1080.35742303 63.88718063 1071.59532649 63.42015799 1062.3164444 63.38311005 C1060.49580553 63.38684829 1058.67516896 63.39189844 1056.85453695 63.39813888 C1051.84131701 63.41149738 1046.82826371 63.40615729 1041.81503933 63.39780539 C1036.36489004 63.39200722 1030.91477309 63.40354162 1025.46463251 63.41286707 C1015.90914601 63.4267954 1006.35370685 63.42950846 996.79821205 63.42490768 C982.58903272 63.41808395 968.37990144 63.42832245 954.17072879 63.44186524 C928.05801083 63.46644579 901.94531028 63.47140597 875.83258254 63.46955473 C872.13279284 63.4692951 868.43300313 63.46905643 864.73321342 63.46883965 C863.99835126 63.46879561 863.26348911 63.46875157 862.5063584 63.46870619 C846.22189403 63.46784284 829.93743282 63.47263387 813.65296968 63.47852156 C809.93485327 63.47986252 806.21673685 63.48116241 802.49862042 63.4824672 C801.00639963 63.48299173 799.51417885 63.48351632 798.02195806 63.48404097 C796.91246049 63.48443064 796.91246049 63.48443064 795.78054882 63.48482819 C794.28441747 63.48535437 792.78828612 63.48588204 791.29215477 63.4864112 C748.83915618 63.50140827 706.38616009 63.51017701 663.93315887 63.50545502 C663.14702394 63.50536915 662.360889 63.50528329 661.55093179 63.50519482 C652.78461889 63.50423542 644.018306 63.50319721 635.25199312 63.50213593 C632.85262774 63.50184641 630.45326237 63.50155693 628.05389699 63.50126753 C626.45300338 63.50107353 624.85210978 63.50087803 623.25121618 63.50068104 C572.61651401 63.49446381 521.98185964 63.50933038 471.34716797 63.54199219 C458.58705914 63.5502153 445.82695027 63.55836521 433.06684113 63.56609344 C432.28117008 63.56656964 431.49549904 63.56704584 430.68601978 63.56753646 C406.47589878 63.58211987 382.26578174 63.59056757 358.05565643 63.592659 C357.29570485 63.59272531 356.53575327 63.59279163 355.75277285 63.59285996 C339.07113021 63.59425393 322.38948786 63.59414285 305.70784523 63.59264987 C299.73912259 63.59212775 293.77039994 63.59171058 287.80167728 63.5913417 C286.31679496 63.59124848 284.83191264 63.59114934 283.34703032 63.59104425 C259.6773352 63.58941852 236.00767566 63.6022498 212.33798976 63.62220203 C187.84110886 63.64273032 163.34428867 63.64489994 138.84740555 63.62604648 C124.71864044 63.61569598 110.5900379 63.61925214 96.46128738 63.64257733 C87.03227749 63.65676735 77.60338839 63.65289558 68.17438674 63.63413157 C62.79641844 63.62394288 57.41876748 63.62175246 52.04081851 63.64145225 C47.15043038 63.65920517 42.26062805 63.65403923 37.3702696 63.63042386 C35.61015234 63.62596592 33.84998899 63.62992252 32.0899164 63.64323221 C15.40092796 63.76090801 15.40092796 63.76090801 8 58 C7.41121562 57.59676336 6.82243124 57.19352671 6.2158049 56.77807078 C2.33688522 53.92614588 1.11427632 51.60205698 0 47 C-0.26025748 43.37474973 -0.232923 39.76576661 -0.1953125 36.1328125 C-0.1924826 35.09808807 -0.18965271 34.06336365 -0.18673706 32.99728394 C-0.17558048 29.70640286 -0.15048397 26.41579822 -0.125 23.125 C-0.11496437 20.88802478 -0.10583953 18.65104527 -0.09765625 16.4140625 C-0.07565595 10.9426147 -0.04222338 5.47132711 0 0 Z " fill="#200400" transform="translate(21,597)"/>
<path d="M0 0 C3.83718777 0.62647964 5.33046547 1.75595095 8.0625 4.5 C8.69741821 7.37705994 8.69741821 7.37705994 8.70947266 10.74975586 C8.72523346 12.0146434 8.74099426 13.27953094 8.75723267 14.58274841 C8.74828188 15.96012238 8.73802664 17.33748841 8.7265625 18.71484375 C8.72993238 20.13204871 8.73478643 21.54925084 8.74105835 22.96644592 C8.74842425 25.93486074 8.73773659 28.90252247 8.71435547 31.87084961 C8.68589185 35.66881107 8.70225506 39.46500403 8.73221779 43.26290035 C8.75032187 46.1893079 8.7445185 49.11529906 8.73157883 52.04171944 C8.72825195 53.44150567 8.7323067 54.84133016 8.74397659 56.2410717 C8.75672958 58.20098993 8.73383164 60.16104127 8.70947266 62.12084961 C8.70549469 63.23463486 8.70151672 64.3484201 8.69741821 65.49595642 C7.85774177 69.46879035 6.18041666 70.98262696 3.0625 73.5 C0 74.125 0 74.125 -2.9375 73.5 C-6.65420605 69.80209049 -7.44027549 67.30155993 -7.45507812 62.12084961 C-7.46768677 60.85280991 -7.48029541 59.5847702 -7.49328613 58.27830505 C-7.48612685 56.90297893 -7.47792299 55.52765791 -7.46875 54.15234375 C-7.47144645 52.73417393 -7.47533016 51.31600592 -7.48034668 49.89784241 C-7.48623275 46.93130829 -7.47770711 43.96525712 -7.45898438 40.9987793 C-7.43617348 37.19984812 -7.44933555 33.40204605 -7.47327423 29.60315609 C-7.48773915 26.67683933 -7.48312362 23.75078967 -7.47276306 20.8244648 C-7.47009872 19.42385282 -7.4733553 18.02321644 -7.48268127 16.62263298 C-7.49285846 14.6650121 -7.47459136 12.70730594 -7.45507812 10.74975586 C-7.45189575 9.6367662 -7.44871338 8.52377655 -7.44543457 7.37705994 C-6.63965183 2.81291847 -4.53433361 0.77180147 0 0 Z " fill="#EF6C12" transform="translate(1037.9375,58.5)"/>
<path d="M0 0 C9.24 0 18.48 0 28 0 C28 0.33 28 0.66 28 1 C27.3709375 1.14695313 26.741875 1.29390625 26.09375 1.4453125 C16.71797405 3.90221764 10.19385788 8.3713651 4.97199438 16.62482233 C1.72148051 22.38830295 1.43323346 27.32503799 1.49104881 33.85227585 C1.48463586 34.92834036 1.4782229 36.00440487 1.47161561 37.1130774 C1.45498753 40.72572762 1.46687346 44.33771711 1.47860718 47.95037842 C1.47256706 50.56385843 1.46478956 53.1773349 1.45542204 55.7908051 C1.43790464 61.47662999 1.43527138 67.16231081 1.44242859 72.84815598 C1.45304372 81.30338322 1.44085094 89.75847101 1.42426272 98.21368309 C1.39377382 114.1937069 1.39037355 130.17366735 1.39530878 146.15371415 C1.39897364 158.4941999 1.39545698 170.83466487 1.38685989 183.17514801 C1.38565509 184.94790602 1.3844527 186.72066403 1.38325269 188.49342205 C1.38143818 191.16479076 1.37962085 193.83615947 1.37778799 196.50752816 C1.36092727 221.34678992 1.35225861 246.18604384 1.36060143 271.02531052 C1.36091418 271.96181317 1.36122693 272.89831583 1.36154916 273.86319735 C1.36316073 278.60978745 1.36485227 283.35637753 1.36657576 288.10296759 C1.36691794 289.04565825 1.36726011 289.98834891 1.36761266 290.95960596 C1.36830597 292.86595616 1.36900303 294.77230636 1.36970383 296.67865655 C1.38041743 326.33920349 1.36456049 355.9996315 1.32763672 385.66015625 C1.28620209 418.98325538 1.26475036 452.30628083 1.27278769 485.62940717 C1.27357838 489.18280108 1.27430148 492.736195 1.27498245 496.28958893 C1.27516392 497.16452525 1.27534538 498.03946158 1.27553234 498.94091113 C1.27786409 512.14782052 1.26456912 525.35465552 1.24335861 538.56154633 C1.21925851 553.58299692 1.21613197 568.60428366 1.24093895 583.62573668 C1.254198 592.03062977 1.25093042 600.43513107 1.22376192 608.83999282 C1.20533086 615.11765842 1.21830336 621.39489225 1.24345751 627.67252627 C1.24877069 630.21084154 1.24395802 632.74920247 1.22798578 635.28747305 C0.62566405 653.20046509 0.62566405 653.20046509 8 669 C10.07305574 671.09739864 12.12520697 672.99524357 14.4609375 674.79296875 C15.22277344 675.39044922 15.22277344 675.39044922 16 676 C16 676.33 16 676.66 16 677 C10.72 677 5.44 677 0 677 C0 453.59 0 230.18 0 0 Z " fill="#373A44" transform="translate(0,0)"/>
<path d="M0 0 C20.75774083 -0.09344463 41.51544698 -0.16397987 62.27335548 -0.20724869 C71.91163794 -0.22787323 81.54978971 -0.25599179 91.18798828 -0.30175781 C99.58872514 -0.34162886 107.98936735 -0.3674336 116.3901962 -0.37635398 C120.83834066 -0.38156828 125.28621434 -0.39382148 129.734272 -0.42292023 C133.92198974 -0.4500936 138.10932543 -0.45844116 142.29712296 -0.45243073 C143.83300351 -0.45353011 145.36889699 -0.46147277 146.90470123 -0.4768219 C149.00501886 -0.49678119 151.103902 -0.49191925 153.20425415 -0.48101807 C154.96580054 -0.48654882 154.96580054 -0.48654882 156.76293373 -0.49219131 C161.70174867 0.25874846 164.88679936 2.50890404 167.85073853 6.47900391 C169.57333741 11.75653568 169.41692387 16.81809021 169.38818359 22.3359375 C169.39606903 24.19548065 169.39606903 24.19548065 169.40411377 26.09259033 C169.41503381 29.48115384 169.41250451 32.86916579 169.40297651 36.25769806 C169.39536051 39.81031515 169.4024309 43.36290929 169.40713501 46.91552734 C169.41258693 52.8805767 169.40541581 58.84551448 169.39111328 64.81054688 C169.37478777 71.69866312 169.38007668 78.58651293 169.3965925 85.47462273 C169.41022349 91.39752921 169.41211917 97.32035567 169.40427649 103.24327278 C169.39960881 106.77687062 169.39895008 110.31034339 169.40888596 113.84393311 C169.4191919 117.7840809 169.40489181 121.72393227 169.38818359 125.6640625 C169.39425629 126.82995911 169.40032898 127.99585571 169.40658569 129.19708252 C169.32526807 139.54591185 169.32526807 139.54591185 166 144 C161.63458706 147.44115283 158.77987172 148.5007788 153.24462891 148.50793457 C152.59036737 148.51417453 151.93610584 148.5204145 151.2620182 148.52684355 C149.08315962 148.54272023 146.90542814 148.53019165 144.7265625 148.51757812 C143.15907136 148.52300167 141.59158531 148.53012563 140.02410889 148.53881836 C135.77613536 148.55702723 131.52855117 148.54999438 127.28057098 148.53730202 C122.83107977 148.52716168 118.38162146 148.53657057 113.93212891 148.54284668 C106.46055122 148.55012008 98.98913178 148.54054348 91.51757812 148.52148438 C82.88441345 148.49971618 74.25162666 148.50676777 65.61847115 148.52879 C58.20087517 148.54695279 50.78339282 148.54949803 43.36578178 148.53903532 C38.93790367 148.53280521 34.51020307 148.53195144 30.08233643 148.54518127 C25.91908362 148.556752 21.75631713 148.54869204 17.59311676 148.52560425 C16.0669358 148.52032364 14.54071378 148.52181989 13.01454926 148.53065491 C10.92760759 148.54162071 8.84221462 148.52783766 6.75537109 148.50793457 C5.00551407 148.50567242 5.00551407 148.50567242 3.2203064 148.50336456 C-1.7636852 147.7243192 -4.796041 145.56427512 -7.85034943 141.59588528 C-9.14413388 138.67454892 -9.38194876 136.6526487 -9.39440918 133.46583557 C-9.40575897 132.36537903 -9.41710876 131.26492249 -9.42880249 130.13111877 C-9.42587189 128.93357468 -9.42294128 127.73603058 -9.41992188 126.50219727 C-9.42839142 125.23338715 -9.43686096 123.96457703 -9.44558716 122.65731812 C-9.46777362 119.18412284 -9.47073535 115.71116501 -9.46883965 112.2379086 C-9.46871982 109.33533852 -9.4772888 106.43281853 -9.48561716 103.53026241 C-9.5048406 96.68119227 -9.50773882 89.83224402 -9.50097656 82.9831543 C-9.494335 75.92396122 -9.51720661 68.86529055 -9.55429029 61.80620342 C-9.58500382 55.73893717 -9.59634561 49.67183884 -9.59245348 43.60449642 C-9.59038779 39.98357743 -9.5958367 36.3630651 -9.62034607 32.74221992 C-9.64678183 28.70352805 -9.63287303 24.66593709 -9.61523438 20.62719727 C-9.62849762 19.4316774 -9.64176086 18.23615753 -9.65542603 17.00440979 C-9.56367507 7.97341219 -9.56367507 7.97341219 -6.46154785 4.21080017 C-5.64923706 3.48123611 -4.83692627 2.75167206 -4 2 C-4 5 -4 5 -5.47703171 7.34789181 C-7.20094626 10.3499293 -7.37287633 12.00466371 -7.36749268 15.43373108 C-7.37306183 16.51183548 -7.37863098 17.58993988 -7.3843689 18.70071411 C-7.37515411 19.87334808 -7.36593933 21.04598206 -7.35644531 22.25415039 C-7.35848969 23.49691238 -7.36053406 24.73967438 -7.36264038 26.02009583 C-7.3651306 29.42099444 -7.35426017 32.8213446 -7.33711338 36.22216725 C-7.3220521 39.78371887 -7.32325082 43.34526696 -7.32244873 46.90684509 C-7.31875906 52.88627289 -7.30380641 58.86558569 -7.28125 64.8449707 C-7.25236442 72.51771265 -7.24202475 80.19036209 -7.2375679 87.8631525 C-7.23358613 94.46369009 -7.22108587 101.06420761 -7.20722103 107.66473079 C-7.20312576 109.78476271 -7.20019827 111.90479393 -7.19742584 114.02482796 C-7.19161633 117.97499569 -7.17693613 121.92510317 -7.16113281 125.87524414 C-7.16001495 127.04990234 -7.15889709 128.22456055 -7.15774536 129.43481445 C-7.15203522 130.51009903 -7.14632507 131.58538361 -7.14044189 132.69325256 C-7.13746723 133.62698731 -7.13449257 134.56072206 -7.13142776 135.52275181 C-7.00664815 137.87469063 -6.86066425 139.80519683 -6 142 C-5.01 142.33 -4.02 142.66 -3 143 C-3 143.66 -3 144.32 -3 145 C77.685 145.495 77.685 145.495 160 146 C160 145.34 160 144.68 160 144 C161.32 144 162.64 144 164 144 C164 142.68 164 141.36 164 140 C164.66 140 165.32 140 166 140 C166.04670662 122.85842979 166.08198227 105.71687943 166.10362434 88.57526016 C166.11393992 80.61623254 166.12800561 72.65724444 166.15087891 64.69824219 C166.17080419 57.76172921 166.18371439 50.82524486 166.18817699 43.88870406 C166.19078583 40.21536068 166.19692357 36.54209919 166.21146011 32.86878204 C166.22755067 28.76958065 166.22798024 24.67052192 166.22705078 20.57128906 C166.23783661 18.74141449 166.23783661 18.74141449 166.24884033 16.87457275 C166.24471634 15.20032227 166.24471634 15.20032227 166.24050903 13.49224854 C166.24235262 12.52252232 166.24419621 11.5527961 166.24609566 10.55368423 C165.99102301 7.90684764 165.3488406 6.26877451 164 4 C163.01 4 162.02 4 161 4 C161 3.34 161 2.68 161 2 C107.87 1.67 54.74 1.34 0 1 C0 0.67 0 0.34 0 0 Z " fill="#DC7734" transform="translate(947,24)"/>
<path d="M0 0 C134.31 0 268.62 0 407 0 C407 3.96 407 7.92 407 12 C405.20963542 10.56770833 403.41927083 9.13541667 401.62890625 7.703125 C392.65828187 1.89154665 384.57522339 1.42417225 374.11180115 1.48101807 C372.49535445 1.47513746 370.87891333 1.46750762 369.26248223 1.458287 C364.83610385 1.43806954 360.41004676 1.44256944 355.98364341 1.45119452 C351.20457928 1.4561454 346.42559521 1.43804695 341.64656067 1.42277527 C333.37169488 1.3994743 325.0969167 1.39071423 316.82201958 1.39188385 C304.85798922 1.39355381 292.89407558 1.37321101 280.93007637 1.34752855 C261.51841272 1.30645491 242.10677008 1.28313649 222.69506836 1.27099609 C203.84055563 1.25916612 184.98608245 1.23896649 166.1315918 1.20751953 C164.96902803 1.20558343 163.80646427 1.20364733 162.6086713 1.20165256 C156.77631898 1.19188791 150.94396696 1.18195882 145.11161506 1.17194796 C96.7410961 1.08913575 48.37057547 1.03514375 0 1 C0 0.67 0 0.34 0 0 Z " fill="#2C303A" transform="translate(726,0)"/>
<path d="M0 0 C2.54379615 2.54379615 2.2510601 3.43231638 2.25396729 6.95907593 C2.25960693 8.00781387 2.26524658 9.05655182 2.27105713 10.1370697 C2.26700867 11.29243729 2.26296021 12.44780487 2.25878906 13.63818359 C2.2622937 14.8512468 2.26579834 16.06431 2.26940918 17.31413269 C2.27671896 20.64690819 2.27498319 23.97943636 2.26865101 27.31219816 C2.26359542 30.79770464 2.26828144 34.28320039 2.27142334 37.76870728 C2.27506525 43.62479555 2.27025904 49.48083343 2.26074219 55.33691406 C2.24986733 62.1067851 2.25337522 68.87653558 2.264395 75.64640367 C2.27347363 81.45623537 2.27475003 87.26603079 2.26951766 93.0758673 C2.26639981 96.54683827 2.26598331 100.01775261 2.27259064 103.48871994 C2.279445 107.3602033 2.26994185 111.23155195 2.25878906 115.10302734 C2.26283752 116.25434647 2.26688599 117.40566559 2.27105713 118.59187317 C2.26541748 119.64625076 2.25977783 120.70062836 2.25396729 121.78695679 C2.25283621 123.16021905 2.25283621 123.16021905 2.25168228 124.56122398 C1.98554308 127.14008609 1.30491187 128.78010002 0 131 C-1.00596529 127.98210414 -1.12570825 125.97890798 -1.12698364 122.82455444 C-1.12980347 121.75327805 -1.13262329 120.68200165 -1.13552856 119.57826233 C-1.13350433 118.40307541 -1.1314801 117.22788849 -1.12939453 116.01708984 C-1.13114685 114.7795546 -1.13289917 113.54201935 -1.13470459 112.26698303 C-1.13835509 108.87255228 -1.1374948 105.47818237 -1.1343255 102.08375502 C-1.13179651 98.53546027 -1.13414085 94.98716814 -1.13571167 91.43887329 C-1.13753131 85.48203056 -1.13513194 79.52520022 -1.13037109 73.56835938 C-1.12492387 66.67290263 -1.12669529 59.77747543 -1.1321975 52.8820194 C-1.13672853 46.96776462 -1.13737938 41.05351875 -1.13475883 35.1392628 C-1.13319664 31.60414242 -1.13300081 28.06903596 -1.13629532 24.53391647 C-1.13970777 20.59730623 -1.1349845 16.66072937 -1.12939453 12.72412109 C-1.13141876 11.54488571 -1.13344299 10.36565033 -1.13552856 9.15068054 C-1.13270874 8.08504379 -1.12988892 7.01940704 -1.12698364 5.92147827 C-1.12660662 4.98975485 -1.12622959 4.05803143 -1.12584114 3.09807396 C-1 1 -1 1 0 0 Z " fill="#3A1C13" transform="translate(936,33)"/>
<path d="M0 0 C5.28 0 10.56 0 16 0 C16 32.67 16 65.34 16 99 C10.72 99 5.44 99 0 99 C0 66.33 0 33.66 0 0 Z M2 2 C2 33.02 2 64.04 2 96 C5.96 96 9.92 96 14 96 C15.86687577 94.13312423 15.12006498 91.45718552 15.12442017 88.97367859 C15.12082489 88.10765518 15.11722961 87.24163177 15.11352539 86.34936523 C15.11367142 85.44213715 15.11381744 84.53490906 15.1139679 83.60018921 C15.11326841 80.58630015 15.10547434 77.57247207 15.09765625 74.55859375 C15.0957922 72.47494033 15.09436824 70.39128646 15.09336853 68.30763245 C15.08954234 62.81176554 15.0797112 57.31592487 15.06866455 51.82006836 C15.0584526 46.21663773 15.05387137 40.61320287 15.04882812 35.00976562 C15.03808902 24.00649886 15.02101139 13.00325161 15 2 C10.71 2 6.42 2 2 2 Z " fill="#FCE2C4" transform="translate(988,46)"/>
<path d="M0 0 C9.24 0 18.48 0 28 0 C28 0.33 28 0.66 28 1 C27.3709375 1.14695313 26.741875 1.29390625 26.09375 1.4453125 C17.58160619 3.6759044 10.96420391 7.55369413 6 15 C4.57827636 17.62755591 3.27749796 20.30007785 2 23 C1.34 24.32 0.68 25.64 0 27 C0 18.09 0 9.18 0 0 Z " fill="#FAFAFB" transform="translate(0,0)"/>
<path d="M0 0 C2 2 2 2 2.24723816 4.54957581 C2.24510063 6.16387733 2.24510063 6.16387733 2.24291992 7.81079102 C2.24599655 9.02867813 2.24907318 10.24656525 2.25224304 11.50135803 C2.24534583 12.83554269 2.2380789 14.16972547 2.23046875 15.50390625 C2.22927702 16.86628679 2.22882377 18.22866816 2.2290802 19.59104919 C2.22751523 22.44673808 2.2192238 25.30230162 2.20581055 28.15795898 C2.18880453 31.82575887 2.18499665 35.49342114 2.18575573 39.16125584 C2.18548436 41.97414982 2.18000881 44.78701347 2.17275429 47.59989738 C2.16956351 48.95274564 2.16759926 50.30559735 2.16686058 51.65844917 C2.16470227 53.54517979 2.15517275 55.43189769 2.14526367 57.31860352 C2.14145187 58.39400894 2.13764008 59.46941437 2.13371277 60.57740784 C2 63 2 63 1 64 C0.76924918 65.34747084 0.58846937 66.70377565 0.4375 68.0625 C0.2209375 70.0115625 0.2209375 70.0115625 0 72 C1.65 72.33 3.3 72.66 5 73 C5.02684679 75.64590014 5.04676357 78.29153096 5.0625 80.9375 C5.07087891 81.69224609 5.07925781 82.44699219 5.08789062 83.22460938 C5.09652441 85.14994313 5.05224333 87.07535581 5 89 C3.27904777 90.72095223 1.02836086 90.17199761 -1.3125 90.1875 C-2.27800781 90.20167969 -3.24351563 90.21585937 -4.23828125 90.23046875 C-7.01519158 89.99873224 -8.63473141 89.42140844 -11 88 C-11 87.34 -11 86.68 -11 86 C-10.01 86.33 -9.02 86.66 -8 87 C-6.10787263 87.22179785 -4.21115528 87.40614015 -2.3125 87.5625 C-0.559375 87.706875 1.19375 87.85125 3 88 C3 83.38 3 78.76 3 74 C1.02 74 -0.96 74 -3 74 C-4.15355289 70.53934134 -3.82012731 69.98869217 -2.59448242 66.70751953 C-0.48380781 60.06328971 -0.52276907 53.6026352 -0.48828125 46.6796875 C-0.4713976 45.32632865 -0.45324253 43.97298513 -0.43388367 42.61965942 C-0.38677656 39.09184565 -0.35671524 35.56409401 -0.33044434 32.03607178 C-0.30043809 28.42236052 -0.25397786 24.80886273 -0.20898438 21.1953125 C-0.12339985 14.13033132 -0.05585754 7.06528397 0 0 Z " fill="#DB6E23" transform="translate(1063,64)"/>
<path d="M0 0 C40.59 0 81.18 0 123 0 C123 3.96 123 7.92 123 12 C121.20963542 10.56770833 119.41927083 9.13541667 117.62890625 7.703125 C110.26870001 2.93484874 103.9661223 1.4083617 95.24780273 1.45410156 C94.21261002 1.44376389 93.1774173 1.43342621 92.1108551 1.42277527 C88.71827339 1.39347872 85.3262917 1.39185084 81.93359375 1.390625 C79.5698992 1.37563454 77.2062151 1.35890558 74.84254456 1.34051514 C68.64317326 1.29692711 62.44394325 1.27686129 56.2444458 1.26177979 C49.90962398 1.24217802 43.57495405 1.20021139 37.24023438 1.16015625 C24.82686987 1.08494655 12.41353951 1.034599 0 1 C0 0.67 0 0.34 0 0 Z " fill="#2D313B" transform="translate(1010,0)"/>
<path d="M0 0 C0.99 0 1.98 0 3 0 C3.09272074 7.75385058 3.16377508 15.50757106 3.20724869 23.26183701 C3.22811513 26.86258286 3.25641421 30.46294916 3.30175781 34.06347656 C3.34525125 37.53887913 3.36914421 41.01391688 3.37950897 44.48957062 C3.39048615 46.45945784 3.421707 48.42919847 3.45318604 50.39886475 C3.45348816 51.59980774 3.45379028 52.80075073 3.45410156 54.03808594 C3.46298401 55.09509705 3.47186646 56.15210815 3.48101807 57.2411499 C3 60 3 60 -1 64 C-0.67 42.88 -0.34 21.76 0 0 Z " fill="#F8E0C5" transform="translate(1046,65)"/>
<path d="M0 0 C16.83 0 33.66 0 51 0 C51.061875 7.095 51.12375 14.19 51.1875 21.5 C51.22846802 24.83641602 51.22846802 24.83641602 51.27026367 28.24023438 C51.27903446 30.02473408 51.28667699 31.80923983 51.29296875 33.59375 C51.30831665 34.50286133 51.32366455 35.41197266 51.33947754 36.34863281 C51.34221742 43.09239096 50.41082127 48.66941043 46.3515625 54.27734375 C40.54317897 59.86232791 40.54317897 59.86232791 36 60 C36.33 59.01 36.66 58.02 37 57 C37.598125 56.855625 38.19625 56.71125 38.8125 56.5625 C41.81620844 55.79011783 43.04260729 54.36237051 45 52 C45.63292383 49.88719655 45.63292383 49.88719655 46 48 C46.66 47.67 47.32 47.34 48 47 C48 32.15 48 17.3 48 2 C32.16 1.67 16.32 1.34 0 1 C0 0.67 0 0.34 0 0 Z " fill="#D37639" transform="translate(1067,597)"/>
<path d="M0 0 C3.3 0 6.6 0 10 0 C10 0.66 10 1.32 10 2 C7.02148438 1.85351562 7.02148438 1.85351562 4.04296875 1.70703125 C1.95679573 1.84796426 1.95679573 1.84796426 0.39558411 3.13380432 C-1.6130362 5.81976107 -1.37418963 7.8206845 -1.37231445 11.15209961 C-1.37854324 12.42029037 -1.38477203 13.68848114 -1.39118958 14.99510193 C-1.38250055 16.38085319 -1.37318246 17.76660062 -1.36328125 19.15234375 C-1.36276253 20.57336934 -1.36328069 21.99439565 -1.36479187 23.41542053 C-1.36470216 26.39383659 -1.35427651 29.37198191 -1.33618164 32.3503418 C-1.31351495 36.16475022 -1.31294669 39.97876236 -1.31969929 43.79321957 C-1.32304423 46.72806813 -1.31639898 49.66282668 -1.30657005 52.59765816 C-1.30272526 54.00384614 -1.30156685 55.41004415 -1.3031559 56.8162365 C-1.30352755 58.78368251 -1.2894089 60.7511151 -1.2746582 62.71850586 C-1.27005081 63.83752792 -1.26544342 64.95654999 -1.26069641 66.10948181 C-1.00557498 68.93818643 -0.4672647 70.60031571 1 73 C0.01 73 -0.98 73 -2 73 C-4.38318097 69.42522855 -4.24813337 67.87567096 -4.24291992 63.63256836 C-4.24599655 62.31788071 -4.24907318 61.00319305 -4.25224304 59.64866638 C-4.2453456 58.21239039 -4.23807865 56.77611614 -4.23046875 55.33984375 C-4.22927661 53.86918681 -4.22882386 52.3985291 -4.2290802 50.9278717 C-4.22751633 47.84696684 -4.21923339 44.76617833 -4.20581055 41.68530273 C-4.18880592 37.73177686 -4.1849967 33.77837868 -4.18575573 29.82482052 C-4.18548413 26.78885169 -4.18000476 23.75291089 -4.17275429 20.71695137 C-4.16956755 19.25886815 -4.1676002 17.80078175 -4.16686058 16.34269524 C-4.16469796 14.30779761 -4.15516215 12.27291181 -4.14526367 10.23803711 C-4.14145187 9.07904404 -4.13764008 7.92005096 -4.13371277 6.72593689 C-4 4 -4 4 -3 2 C-2.01 2 -1.02 2 0 2 C0 1.34 0 0.68 0 0 Z " fill="#FCD7B3" transform="translate(1033,58)"/>
<path d="M0 0 C0 3 0 3 -1.47703171 5.34789181 C-3.20094626 8.3499293 -3.37287633 10.00466371 -3.36749268 13.43373108 C-3.37306183 14.51183548 -3.37863098 15.58993988 -3.3843689 16.70071411 C-3.37515411 17.87334808 -3.36593933 19.04598206 -3.35644531 20.25415039 C-3.35848969 21.49691238 -3.36053406 22.73967438 -3.36264038 24.02009583 C-3.3651306 27.42099444 -3.35426017 30.8213446 -3.33711338 34.22216725 C-3.3220521 37.78371887 -3.32325082 41.34526696 -3.32244873 44.90684509 C-3.31875906 50.88627289 -3.30380641 56.86558569 -3.28125 62.8449707 C-3.25236442 70.51771265 -3.24202475 78.19036209 -3.2375679 85.8631525 C-3.23358613 92.46369009 -3.22108587 99.06420761 -3.20722103 105.66473079 C-3.20312576 107.78476271 -3.20019827 109.90479393 -3.19742584 112.02482796 C-3.19161633 115.97499569 -3.17693613 119.92510317 -3.16113281 123.87524414 C-3.16001495 125.04990234 -3.15889709 126.22456055 -3.15774536 127.43481445 C-3.15203522 128.51009903 -3.14632507 129.58538361 -3.14044189 130.69325256 C-3.13746723 131.62698731 -3.13449257 132.56072206 -3.13142776 133.52275181 C-3.00664815 135.87469063 -2.86066425 137.80519683 -2 140 C-1.01 140.33 -0.02 140.66 1 141 C1 141.66 1 142.32 1 143 C1.99 143.33 2.98 143.66 4 144 C3.34 144.33 2.68 144.66 2 145 C-1.2821157 142.58159896 -3.5165898 140.82166545 -5 137 C-5.26006222 134.47869301 -5.26006222 134.47869301 -5.27415466 131.58609009 C-5.28412979 130.48700821 -5.29410492 129.38792633 -5.30438232 128.25553894 C-5.305047 127.05439957 -5.30571167 125.85326019 -5.30639648 124.61572266 C-5.31472 123.34705856 -5.32304352 122.07839447 -5.33161926 120.77128601 C-5.35354705 117.29394932 -5.36236074 113.81670056 -5.36744571 110.33930254 C-5.37109114 108.16561754 -5.37733215 105.9919555 -5.3844471 103.81827927 C-5.40893506 96.23170715 -5.42199219 88.64520336 -5.42553711 81.05859375 C-5.42917252 73.9920575 -5.45906944 66.92595554 -5.50094169 59.85955203 C-5.53565445 53.78807516 -5.55108571 47.71674217 -5.55178314 41.64516675 C-5.5525756 38.0208578 -5.56129892 34.39699141 -5.58978081 30.77278519 C-5.62084839 26.72923462 -5.61189736 22.68671689 -5.59936523 18.64306641 C-5.61419952 17.44597549 -5.62903381 16.24888458 -5.64431763 15.01551819 C-5.56439144 5.97215248 -5.56439144 5.97215248 -2.46253967 2.20980835 C-1.64990158 1.48057159 -0.83726349 0.75133484 0 0 Z " fill="#DB7938" transform="translate(943,26)"/>
<path d="M0 0 C1.90941111 2.86411667 3.20438681 5.62306371 4.625 8.75 C7.17655972 13.96048706 9.88455389 17.27069597 14.4609375 20.79296875 C14.96882812 21.19128906 15.47671875 21.58960938 16 22 C16 22.33 16 22.66 16 23 C10.72 23 5.44 23 0 23 C0 15.41 0 7.82 0 0 Z " fill="#F7F8F9" transform="translate(0,654)"/>
<path d="M0 0 C4.25223694 3.93835645 5.76635024 8.3676463 6.27017212 14.04382324 C6.37982322 17.69431696 6.38954868 21.33232594 6.36328125 24.984375 C6.36276165 26.33099365 6.3632832 27.67761306 6.36479187 29.02423096 C6.36470264 31.83153768 6.35436882 34.6385543 6.33618164 37.44580078 C6.31340801 41.0392345 6.31297134 44.63224853 6.31969929 48.22573471 C6.32304248 51.00015988 6.31640407 53.77448972 6.30657005 56.54889679 C6.30086938 58.51645623 6.30215142 60.48403191 6.30354309 62.45159912 C6.29401108 63.64674133 6.28447906 64.84188354 6.2746582 66.07324219 C6.27005081 67.12388855 6.26544342 68.17453491 6.26069641 69.25701904 C5.99973114 72.00282887 5.41238055 73.65821687 4 76 C3.98969254 75.17172195 3.97938507 74.34344391 3.96876526 73.49006653 C3.87071254 65.67728321 3.76818713 57.86457407 3.66066074 50.05191517 C3.60554004 46.03553247 3.55213772 42.01914236 3.50268555 38.00268555 C3.4548815 34.12525467 3.40253351 30.24790913 3.34705925 26.37058067 C3.32670819 24.89266783 3.30798344 23.41473164 3.29092598 21.93677711 C3.26672072 19.86377171 3.23668935 17.7909253 3.20532227 15.71801758 C3.18200584 13.94930046 3.18200584 13.94930046 3.15821838 12.14485168 C3.01600333 9.31809267 2.64414553 6.7503947 2 4 C1.34 4 0.68 4 0 4 C0 2.68 0 1.36 0 0 Z " fill="#FED9B6" transform="translate(1057,53)"/>
<path d="M0 0 C6.6 0 13.2 0 20 0 C20 3.96 20 7.92 20 12 C18.865625 11.0925 17.73125 10.185 16.5625 9.25 C12.88840073 6.47808169 9.23750565 4.57725892 4.98046875 2.859375 C3 2 3 2 0 0 Z " fill="#F6F7F8" transform="translate(1113,0)"/>
<path d="M0 0 C0.33 0 0.66 0 1 0 C1 3.63 1 7.26 1 11 C2.65 11.33 4.3 11.66 6 12 C6.02684679 14.64590014 6.04676357 17.29153096 6.0625 19.9375 C6.07087891 20.69224609 6.07925781 21.44699219 6.08789062 22.22460938 C6.09652441 24.14994313 6.05224333 26.07535581 6 28 C4.27904777 29.72095223 2.02836086 29.17199761 -0.3125 29.1875 C-1.27800781 29.20167969 -2.24351563 29.21585938 -3.23828125 29.23046875 C-6.01519158 28.99873224 -7.63473141 28.42140844 -10 27 C-10 26.34 -10 25.68 -10 25 C-9.01 25.33 -8.02 25.66 -7 26 C-5.10787263 26.22179785 -3.21115528 26.40614015 -1.3125 26.5625 C0.440625 26.706875 2.19375 26.85125 4 27 C4 22.38 4 17.76 4 13 C2.02 13 0.04 13 -2 13 C-3.18414294 9.44757118 -2.69535532 8.30169438 -1.5625 4.8125 C-1.27503906 3.91144531 -0.98757813 3.01039063 -0.69140625 2.08203125 C-0.46324219 1.39496094 -0.23507812 0.70789063 0 0 Z " fill="#DE762C" transform="translate(1062,125)"/>
<path d="M0 0 C3.68754243 -0.57361771 5.46542195 -0.32747579 8.66374207 1.6317749 C11 4 11 4 11.60127258 6.91070557 C11.584618 8.60281158 11.584618 8.60281158 11.56762695 10.32910156 C11.5672493 11.61012756 11.56687164 12.89115356 11.56648254 14.21099854 C11.54095112 15.60421728 11.51487117 16.99742606 11.48828125 18.390625 C11.47895167 19.81979129 11.47183624 21.24897361 11.46684265 22.67816162 C11.44778355 26.43343528 11.39869432 30.18773657 11.34332275 33.94262695 C11.29210548 37.77672166 11.26932346 41.61097405 11.24414062 45.4453125 C11.19057265 52.96398419 11.10527541 60.48185567 11 68 C10.67 68 10.34 68 10 68 C10 47.21 10 26.42 10 5 C9.34 5 8.68 5 8 5 C7.67 4.34 7.34 3.68 7 3 C4.03 3 1.06 3 -2 3 C-1.34 2.01 -0.68 1.02 0 0 Z " fill="#D06B23" transform="translate(1035,59)"/>
<path d="M0 0 C1.65 0 3.3 0 5 0 C4.51249268 0.34877197 4.02498535 0.69754395 3.52270508 1.05688477 C1.22960885 3.98309173 1.62822937 6.41485965 1.63671875 10.08984375 C1.63622025 10.78960831 1.63572174 11.48937286 1.63520813 12.21034241 C1.63754896 13.69567696 1.64727818 15.18101546 1.66381836 16.66625977 C1.68709156 18.8983275 1.6844197 21.1291725 1.67773438 23.36132812 C1.56602681 41.57338342 1.56602681 41.57338342 10.66015625 56.68359375 C11.10230469 57.11800781 11.54445313 57.55242188 12 58 C7.53508991 56.81811203 5.23587543 54.44772889 2.234375 51.14453125 C-0.92438439 45.65668662 -0.13359493 38.27435033 -0.09765625 32.12890625 C-0.0962413 31.206577 -0.09482635 30.28424774 -0.09336853 29.33396912 C-0.08780506 26.41011202 -0.07525942 23.48633365 -0.0625 20.5625 C-0.05748028 18.57096465 -0.0529182 16.5794281 -0.04882812 14.58789062 C-0.03784762 9.72523044 -0.02060839 4.86262853 0 0 Z " fill="#E77020" transform="translate(23,598)"/>
<path d="M0 0 C0.66 0 1.32 0 2 0 C2.10161289 6.58352441 2.1715547 13.16684577 2.21972656 19.75097656 C2.23981316 21.98966021 2.2670878 24.22829158 2.30175781 26.46679688 C2.35040464 29.68893349 2.37299874 32.91037501 2.390625 36.1328125 C2.41127014 37.12991241 2.43191528 38.12701233 2.45318604 39.15432739 C2.45550958 46.3876002 1.1501767 49.64658609 -3.81640625 54.93359375 C-4.39261719 55.42988281 -4.96882813 55.92617188 -5.5625 56.4375 C-6.43068359 57.20900391 -6.43068359 57.20900391 -7.31640625 57.99609375 C-7.87199219 58.32738281 -8.42757813 58.65867187 -9 59 C-9.99 58.67 -10.98 58.34 -12 58 C-11.67 57.34 -11.34 56.68 -11 56 C-10.401875 55.87625 -9.80375 55.7525 -9.1875 55.625 C-6.21796163 54.77656046 -4.95265177 53.35664868 -3 51 C-2.36707617 48.88719655 -2.36707617 48.88719655 -2 47 C-1.01 46.505 -1.01 46.505 0 46 C0 30.82 0 15.64 0 0 Z " fill="#E77223" transform="translate(1115,598)"/>
<path d="M0 0 C0.33 0 0.66 0 1 0 C1.0093457 1.28575928 1.01869141 2.57151855 1.02832031 3.89624023 C1.06840866 8.69931775 1.13421931 13.5017674 1.20751953 18.30444336 C1.23562025 20.37695201 1.25688861 22.44956566 1.27099609 24.5222168 C1.29257701 27.51405168 1.33930442 30.50463849 1.390625 33.49609375 C1.39185364 34.41208847 1.39308228 35.32808319 1.39434814 36.27183533 C1.54394584 42.94982921 2.74273049 49.49666614 7.44683838 54.55613708 C8.89739224 55.78787091 10.4471342 56.90005339 12 58 C12.78375 58.598125 13.5675 59.19625 14.375 59.8125 C14.91125 60.204375 15.4475 60.59625 16 61 C11.96748913 60.45043657 9.53006009 59.28712601 6.3125 56.8125 C5.54550781 56.24144531 4.77851563 55.67039062 3.98828125 55.08203125 C-1.01050743 49.8475433 -0.26536531 42.8995037 -0.1953125 36.1328125 C-0.1924826 35.09808807 -0.18965271 34.06336365 -0.18673706 32.99728394 C-0.17558048 29.70640286 -0.15048397 26.41579822 -0.125 23.125 C-0.11496437 20.88802478 -0.10583953 18.65104527 -0.09765625 16.4140625 C-0.07565595 10.9426147 -0.04222338 5.47132711 0 0 Z " fill="#310F02" transform="translate(21,597)"/>
<path d="M0 0 C1.74216797 0.02707031 1.74216797 0.02707031 3.51953125 0.0546875 C4.39996094 0.07789063 5.28039063 0.10109375 6.1875 0.125 C6.1875 0.455 6.1875 0.785 6.1875 1.125 C4.57681641 1.32802734 4.57681641 1.32802734 2.93359375 1.53515625 C-7.63678176 2.95957399 -7.63678176 2.95957399 -15.74609375 9.50390625 C-16.87268703 11.1470923 -16.87268703 11.1470923 -17.8125 13.125 C-18.8025 13.125 -19.7925 13.125 -20.8125 13.125 C-19.44048559 7.94183445 -16.1087988 5.06094768 -11.8125 2.125 C-7.78238436 0.08261936 -4.48787265 -0.09066409 0 0 Z " fill="#FCE6C9" transform="translate(1037.8125,44.875)"/>
<path d="M0 0 C0.495 1.485 0.495 1.485 1 3 C-2.94612011 7.7098853 -6.92431985 9.82344594 -13 11 C-19.00552755 11.47633714 -25.04506424 11.28362903 -31.0625 11.1875 C-32.70767006 11.17242751 -34.35285345 11.15874364 -35.99804688 11.14648438 C-39.99903141 11.11367782 -43.99936631 11.06203766 -48 11 C-48 10.67 -48 10.34 -48 10 C-47.01717041 9.9906543 -46.03434082 9.98130859 -45.02172852 9.97167969 C-41.33671572 9.93147385 -37.65251126 9.86563488 -33.96801758 9.79248047 C-32.38055899 9.76444659 -30.79296538 9.74314552 -29.20532227 9.72900391 C-14.35810589 9.67053355 -14.35810589 9.67053355 -1.9375 2.25 C-0.9784375 1.13625 -0.9784375 1.13625 0 0 Z " fill="#1F0400" transform="translate(1114,649)"/>
<path d="M0 0 C0.33 0 0.66 0 1 0 C1.05064156 6.78097348 1.08570883 13.56189833 1.10986328 20.34301758 C1.11993107 22.6506533 1.13358623 24.95827625 1.15087891 27.26586914 C1.17509287 30.57962191 1.18647526 33.89320626 1.1953125 37.20703125 C1.20563507 38.2414888 1.21595764 39.27594635 1.22659302 40.3417511 C1.22674408 41.3025206 1.22689514 42.2632901 1.22705078 43.25317383 C1.231492 44.09922684 1.23593323 44.94527985 1.24050903 45.81697083 C1 48 1 48 -1 51 C-1.66 51 -2.32 51 -3 51 C-2.51781006 49.33517578 -2.51781006 49.33517578 -2.02587891 47.63671875 C-0.79380577 42.68724677 -0.65120372 37.89359157 -0.5859375 32.8125 C-0.56657135 31.86938965 -0.5472052 30.9262793 -0.5272522 29.95458984 C-0.467917 26.96981588 -0.4212567 23.98500237 -0.375 21 C-0.33677776 18.9648278 -0.29772362 16.92967103 -0.2578125 14.89453125 C-0.16225378 9.92981431 -0.07805441 4.96502174 0 0 Z " fill="#311002" transform="translate(1118,598)"/>
<path d="M0 0 C0.33 0 0.66 0 1 0 C1.11629782 4.39561039 1.18728634 8.79082429 1.25 13.1875 C1.30027344 15.05631836 1.30027344 15.05631836 1.3515625 16.96289062 C1.36445312 18.16494141 1.37734375 19.36699219 1.390625 20.60546875 C1.41157227 21.71043701 1.43251953 22.81540527 1.45410156 23.95385742 C0.89427803 27.70918978 -0.36216244 29.31927809 -3 32 C-5.75 33.3125 -5.75 33.3125 -8 34 C-8.66 33.34 -9.32 32.68 -10 32 C-9.01 32 -8.02 32 -7 32 C-7 31.34 -7 30.68 -7 30 C-5.68 30 -4.36 30 -3 30 C-3 28.68 -3 27.36 -3 26 C-2.34 26 -1.68 26 -1 26 C-0.67 17.42 -0.34 8.84 0 0 Z " fill="#E77224" transform="translate(1114,138)"/>
<path d="M0 0 C3.43705705 -0.14505175 6.87333033 -0.23398014 10.3125 -0.3125 C11.28896484 -0.35439453 12.26542969 -0.39628906 13.27148438 -0.43945312 C15.93793866 -0.48526849 18.37713857 -0.4882833 21 0 C23.16796875 2.51953125 23.16796875 2.51953125 24 5 C23.01 4.67 22.02 4.34 21 4 C19.62829744 3.86641049 18.25197173 3.77674074 16.875 3.71875 C16.08609375 3.68136719 15.2971875 3.64398438 14.484375 3.60546875 C13.66453125 3.57066406 12.8446875 3.53585938 12 3.5 C10.37482869 3.43100688 8.74981198 3.35824272 7.125 3.28125 C6.04605469 3.23581055 6.04605469 3.23581055 4.9453125 3.18945312 C3 3 3 3 0 2 C0 1.34 0 0.68 0 0 Z " fill="#D97933" transform="translate(1028,145)"/>
<path d="M0 0 C1.40958984 0.47566406 1.40958984 0.47566406 2.84765625 0.9609375 C7.65964599 2.33579171 12.46081948 2.45301968 17.4375 2.625 C18.82098633 2.68300781 18.82098633 2.68300781 20.23242188 2.7421875 C22.48809143 2.83568676 24.74376916 2.9214391 27 3 C26.67 3.66 26.34 4.32 26 5 C23.16560863 5.10901505 20.33549797 5.18777904 17.5 5.25 C16.70851563 5.28351563 15.91703125 5.31703125 15.1015625 5.3515625 C9.00327706 5.45153439 5.2682263 4.06910431 0 1 C0 0.67 0 0.34 0 0 Z " fill="#FDE7CA" transform="translate(1023,141)"/>
<path d="M0 0 C5.625 -0.25 5.625 -0.25 9 2 C9 2.66 9 3.32 9 4 C9.66 4 10.32 4 11 4 C14.10096154 9.45769231 14.10096154 9.45769231 13.58984375 12.203125 C13.39519531 12.79609375 13.20054688 13.3890625 13 14 C12.69707031 13.46890625 12.39414063 12.9378125 12.08203125 12.390625 C8.77566986 6.81559102 5.40555262 3.60370174 0 0 Z " fill="#DC7C38" transform="translate(1048,46)"/>
<path d="M0 0 C0 2.64 0 5.28 0 8 C-2.97 8 -5.94 8 -9 8 C-7.33333333 6.33333333 -5.66666667 4.66666667 -4 3 C-3.4225 2.401875 -2.845 1.80375 -2.25 1.1875 C-1 0 -1 0 0 0 Z " fill="#F1F2F3" transform="translate(1133,669)"/>
<path d="M0 0 C0.75 1.625 0.75 1.625 1 4 C-1.52875638 8.84678307 -5.25934442 13.17320537 -10 16 C-10.99 15.67 -11.98 15.34 -13 15 C-12.67 14.34 -12.34 13.68 -12 13 C-11.401875 12.87625 -10.80375 12.7525 -10.1875 12.625 C-7.21796163 11.77656046 -5.95265177 10.35664868 -4 8 C-3.36707617 5.88719655 -3.36707617 5.88719655 -3 4 C-2.34 3.67 -1.68 3.34 -1 3 C-0.67 2.01 -0.34 1.02 0 0 Z " fill="#D17334" transform="translate(1116,641)"/>
<path d="M0 0 C1.65 0 3.3 0 5 0 C4.2733313 0.58454956 4.2733313 0.58454956 3.53198242 1.1809082 C1.52326272 3.56608279 1.57763018 5.01399593 1.48828125 8.10546875 C1.45283203 9.08837891 1.41738281 10.07128906 1.38085938 11.08398438 C1.35830078 12.10814453 1.33574219 13.13230469 1.3125 14.1875 C1.27833984 15.22326172 1.24417969 16.25902344 1.20898438 17.32617188 C1.12647358 19.8840066 1.05733428 22.44149723 1 25 C0.67 25 0.34 25 0 25 C0 16.75 0 8.5 0 0 Z " fill="#E97322" transform="translate(23,598)"/>
<path d="M0 0 C0.33 0.99 0.66 1.98 1 3 C-5.54201681 9.90546218 -5.54201681 9.90546218 -11.25 10.125 C-12.1575 10.08375 -13.065 10.0425 -14 10 C-11 8 -11 8 -8.125 6.6875 C-4.76675135 4.87404573 -2.56995647 2.79671734 0 0 Z " fill="#371708" transform="translate(1114,649)"/>
<path d="M0 0 C1.32 0.33 2.64 0.66 4 1 C1.34345343 4.73884332 -0.58110387 6.64978174 -5 8 C-5.66 7.34 -6.32 6.68 -7 6 C-6.01 6 -5.02 6 -4 6 C-4 5.34 -4 4.68 -4 4 C-2.68 4 -1.36 4 0 4 C0 2.68 0 1.36 0 0 Z " fill="#CD6E30" transform="translate(1111,164)"/>
<path d="M0 0 C3.97475764 -0.61829563 5.5419102 -0.31867116 8.875 2 C9.926875 2.99 9.926875 2.99 11 4 C10.67 4.66 10.34 5.32 10 6 C9.60167969 5.50886719 9.20335937 5.01773438 8.79296875 4.51171875 C6.4878245 2.56816575 5.2803281 2.683464 2.3125 2.8125 C1.10013672 2.85310547 1.10013672 2.85310547 -0.13671875 2.89453125 C-0.75160156 2.92933594 -1.36648438 2.96414062 -2 3 C-1.34 2.01 -0.68 1.02 0 0 Z " fill="#D77C3B" transform="translate(1035,59)"/>
<path d="M0 0 C0.33 0 0.66 0 1 0 C1 2.64 1 5.28 1 8 C0.34 8 -0.32 8 -1 8 C-0.33131686 11.11332248 -0.33131686 11.11332248 2.0625 12.1875 C2.701875 12.455625 3.34125 12.72375 4 13 C2.02 13 0.04 13 -2 13 C-3.18414294 9.44757118 -2.69535532 8.30169438 -1.5625 4.8125 C-1.27503906 3.91144531 -0.98757813 3.01039063 -0.69140625 2.08203125 C-0.46324219 1.39496094 -0.23507812 0.70789063 0 0 Z " fill="#D5864B" transform="translate(1062,125)"/>
<path d="M0 0 C0.33 0.66 0.66 1.32 1 2 C1.66 2 2.32 2 3 2 C4.18359375 3.42578125 4.18359375 3.42578125 5.4375 5.3125 C7.10948826 7.81262038 8.81408865 9.9288012 11 12 C5.90025053 10.65006632 2.80502464 7.32802771 0 3 C0 2.01 0 1.02 0 0 Z " fill="#CC7236" transform="translate(24,644)"/>
<path d="M0 0 C0.66 0.33 1.32 0.66 2 1 C1.07347299 2.17539996 0.13336613 3.34010577 -0.8125 4.5 C-1.33457031 5.1496875 -1.85664062 5.799375 -2.39453125 6.46875 C-4 8 -4 8 -7 8 C-6.01347016 4.68167234 -5.31268497 3.23451373 -2.5 1.125 C-1.675 0.75375 -0.85 0.3825 0 0 Z " fill="#FEF3DE" transform="translate(1024,50)"/>
<path d="M0 0 C0.33 0 0.66 0 1 0 C1.10957031 0.63808594 1.21914063 1.27617187 1.33203125 1.93359375 C1.49058594 2.75988281 1.64914062 3.58617187 1.8125 4.4375 C1.96332031 5.26121094 2.11414063 6.08492187 2.26953125 6.93359375 C2.51058594 7.61550781 2.75164063 8.29742187 3 9 C3.99 9.33 4.98 9.66 6 10 C6 10.66 6 11.32 6 12 C6.99 12.33 7.98 12.66 9 13 C8.01 13.495 8.01 13.495 7 14 C1.20731707 9.73170732 1.20731707 9.73170732 0 6 C-0.125 2.75 -0.125 2.75 0 0 Z " fill="#D1763A" transform="translate(938,157)"/>
<path d="M0 0 C0.33 0.99 0.66 1.98 1 3 C-2.6441774 5.4294516 -4.71241272 5.16179575 -9 5 C-9 4.34 -9 3.68 -9 3 C-8.43410156 2.86722656 -7.86820313 2.73445312 -7.28515625 2.59765625 C-6.18494141 2.33275391 -6.18494141 2.33275391 -5.0625 2.0625 C-4.33160156 1.88847656 -3.60070313 1.71445313 -2.84765625 1.53515625 C-1.00030102 1.16112431 -1.00030102 1.16112431 0 0 Z " fill="#FEEDD5" transform="translate(1044,129)"/>
<path d="M0 0 C0.66 0.33 1.32 0.66 2 1 C0.02 3.31 -1.96 5.62 -4 8 C-4.99 7.67 -5.98 7.34 -7 7 C-4.69 4.69 -2.38 2.38 0 0 Z " fill="#252A37" transform="translate(13,6)"/>
<path d="M0 0 C0.33 0 0.66 0 1 0 C1.18175781 0.90492187 1.18175781 0.90492187 1.3671875 1.828125 C1.53476563 2.62734375 1.70234375 3.4265625 1.875 4.25 C2.03742188 5.03890625 2.19984375 5.8278125 2.3671875 6.640625 C2.99150075 8.96831144 3.84838542 10.89031952 5 13 C4.01 13 3.02 13 2 13 C-0.20914 9.68629 -0.22481553 8.6553979 -0.125 4.8125 C-0.10695313 3.91144531 -0.08890625 3.01039062 -0.0703125 2.08203125 C-0.04710937 1.39496094 -0.02390625 0.70789063 0 0 Z " fill="#FDE8CC" transform="translate(1029,118)"/>
<path d="M0 0 C0.825 0.309375 1.65 0.61875 2.5 0.9375 C6.39126155 2.11877583 9.96166953 2.58224168 14 3 C14 3.33 14 3.66 14 4 C12.41705218 4.05437607 10.83355744 4.09296271 9.25 4.125 C8.36828125 4.14820313 7.4865625 4.17140625 6.578125 4.1953125 C3.8864142 3.99139502 2.30095026 3.36551721 0 2 C0 1.34 0 0.68 0 0 Z " fill="#D67026" transform="translate(1052,150)"/>
<path d="M0 0 C0.99 1.485 0.99 1.485 2 3 C3.051875 4.485 3.051875 4.485 4.125 6 C6 9 6 9 6 12 C2.59156258 9.11593757 1.13408616 7.6291735 0.1875 3.1875 C0.125625 2.135625 0.06375 1.08375 0 0 Z " fill="#D97834" transform="translate(1015,130)"/>
<path d="M0 0 C3.0916909 2.52956528 3.90931332 5.22454612 5 9 C4.01 8.67 3.02 8.34 2 8 C2 6.68 2 5.36 2 4 C1.34 4 0.68 4 0 4 C0 2.68 0 1.36 0 0 Z " fill="#FDE5C6" transform="translate(1057,53)"/>
</svg>
